<?xml version="1.0" standalone="no"?>
<!DOCTYPE svg PUBLIC "-//W3C//DTD SVG 1.1//EN" "http://www.w3.org/Graphics/SVG/1.1/DTD/svg11.dtd" >
<svg xmlns="http://www.w3.org/2000/svg" xmlns:xlink="http://www.w3.org/1999/xlink" version="1.1">
<metadata>
Created by FontForge 20160405 at Mon May 14 02:25:39 2018
 By www-data
Converted by ALLTYPE
</metadata>
<defs>
<font id="LucidaCalligra" horiz-adv-x="500" >
  <font-face 
    font-family="Lucida Calligra"
    font-weight="5"
    font-stretch="normal"
    units-per-em="1000"
    panose-1="0 0 0 0 0 0 0 0 0 0"
    ascent="800"
    descent="-200"
    x-height="540"
    cap-height="722"
    bbox="-236 -325 1287 958"
    underline-thickness="50"
    underline-position="-155"
    unicode-range="U+0020-F002"
  />
<missing-glyph 
d="M62 0v722h375v-722h-375v0zM125 62h250v598h-250v-598v0z" />
    <glyph glyph-name=".notdef" 
d="M62 0v722h375v-722h-375v0zM125 62h250v598h-250v-598v0z" />
    <glyph glyph-name="glyph1" horiz-adv-x="0" 
 />
    <glyph glyph-name="glyph2" horiz-adv-x="332" 
 />
    <glyph glyph-name="space" unicode=" " horiz-adv-x="332" 
 />
    <glyph glyph-name="space" unicode="&#xa0;" horiz-adv-x="332" 
 />
    <glyph glyph-name="exclam" unicode="!" horiz-adv-x="252" 
d="M79 62l76 58l57 -79l-75 -53l-58 74v0zM155 188l43 388l29 146l100 18l-33 -164l-111 -379l-28 -9v0z" />
    <glyph glyph-name="quotedbl" unicode="&#x22;" horiz-adv-x="373" 
d="M226 530l-34 240h97l-33 -240h-30v0zM394 530l-33 240h97l-34 -240h-30v0z" />
    <glyph glyph-name="numbersign" unicode="#" horiz-adv-x="632" 
d="M95 0l105 222h-118l6 48h134l86 181h-181l6 49h197l105 222h55l-105 -222h136l105 222h55l-105 -222h118l-7 -49h-134l-85 -181h180l-6 -48h-197l-105 -222h-54l105 222h-137l-105 -222h-54v0zM277 270h136l86 181h-137l-85 -181v0z" />
    <glyph glyph-name="dollar" unicode="$" horiz-adv-x="509" 
d="M235 -72l15 72h-12h-8q-46 0 -89 5.5t-82 18.5l61 63q35 -24 69.5 -36.5t68.5 -14.5l38 192l-33 21q-44 29 -66 60t-22 62q0 29 12 54t35 45q24 21 57 34.5t76 20.5l15 77h30l-15 -72q32 -1 66 -7.5t69 -20.5l-26 -105h-30q2 7 3 14t1 12q0 31 -22.5 48.5t-66.5 21.5
l-38 -188l28 -20q28 -21 46 -37t26 -27q8 -10 12.5 -24.5t4.5 -31.5q0 -28 -12.5 -52.5t-36.5 -47.5q-24 -22 -56 -37.5t-72 -24.5l-15 -75h-31v0zM289 40q47 7 70.5 28.5t23.5 57.5q0 19 -11 36t-33 32l-17 14l-33 -168v0zM315 323l34 170q-50 -7 -75 -28t-25 -56
q0 -16 12 -34.5t37 -38.5l17 -13v0z" />
    <glyph glyph-name="percent" unicode="%" horiz-adv-x="758" 
d="M88 -18l665 758h64l-665 -758h-64v0zM576 0q-28 0 -50 8t-39 26q-16 17 -24.5 40.5t-8.5 52.5q0 48 13.5 89t41.5 75q28 35 61 52t72 17q29 0 52 -9t39 -26q17 -17 25.5 -40.5t8.5 -53.5q0 -49 -13.5 -90t-42.5 -75q-28 -34 -61.5 -50t-73.5 -16v0zM525 123
q0 -48 14.5 -71.5t44.5 -23.5q23 0 43 16.5t38 47.5q18 32 27 67.5t9 75.5q0 48 -15 72t-44 24q-22 0 -42.5 -16t-38.5 -48t-27 -68t-9 -77v1zM261 361q-28 -1 -50 8t-39 26q-16 17 -24.5 41t-8.5 52q0 49 13.5 90t41.5 75t61 51t72 17q29 0 52 -8.5t39 -26.5
q17 -17 25.5 -40.5t8.5 -52.5q0 -49 -13.5 -90t-42.5 -76q-28 -34 -61.5 -50.5t-73.5 -16.5v1zM210 485q0 -48 15 -71.5t45 -23.5q22 0 42 16t38 48t27 67t9 75q0 48 -15 72t-44 24q-22 0 -42.5 -16t-38.5 -48q-18 -31 -27 -67t-9 -77v1z" />
    <glyph glyph-name="ampersand" unicode="&#x26;" horiz-adv-x="819" 
d="M500 66q-52 -43 -104 -63.5t-103 -20.5q-42 0 -77 13t-63 41q-28 27 -42.5 61.5t-14.5 76.5q0 78 57.5 141t172.5 109q-13 37 -19.5 66t-6.5 50q0 38 16.5 72.5t48.5 65.5t69 46.5t78 15.5q29 0 52 -8t41 -25t27 -39t9 -48q0 -67 -54.5 -118t-162.5 -85
q32 -84 66.5 -151.5t72.5 -119.5q38 39 60 84t29 94l-101 1l47 72h129q48 -1 85 7t63 24l-38 -59q-28 -23 -55 -34t-53 -11l-16 1q-19 -59 -52 -110t-80 -93q35 -43 63.5 -65t50.5 -22q19 0 44.5 10.5t57.5 31.5q2 2 6 4.5t9 5.5l-7 -35q-43 -36 -83 -53t-78 -17
q-22 0 -40 4.5t-32 12.5q-13 6 -31 23t-41 43v1zM483 91q-43 63 -80.5 139.5t-68.5 165.5q-68 -31 -102 -79.5t-34 -113.5q0 -35 10.5 -64t31.5 -52q22 -23 48.5 -35t58.5 -12q29 0 63 12.5t73 37.5v1zM415 447q73 28 109.5 72t36.5 105q0 42 -18 63.5t-53 21.5
q-22 0 -40 -9t-32 -27t-21 -42t-7 -53q0 -27 6 -60t19 -72v1z" />
    <glyph glyph-name="quotesingle" unicode="'" horiz-adv-x="229" 
d="M220 505l-46 265h121l-45 -265h-30v0z" />
    <glyph glyph-name="parenleft" unicode="(" horiz-adv-x="352" 
d="M264 -117l-6 -27q-73 56 -109 143.5t-36 207.5q0 94 24.5 186t73.5 183q49 92 110 158t134 108l-8 -38q-43 -37 -79 -84.5t-63 -107.5q-23 -50 -42.5 -110.5t-35.5 -131.5q-16 -70 -24 -132t-8 -115q0 -75 17.5 -134.5t51.5 -105.5v0z" />
    <glyph glyph-name="parenright" unicode=")" horiz-adv-x="352" 
d="M229 816l5 27q72 -57 108.5 -145.5t36.5 -208.5q0 -94 -24 -186t-74 -183q-49 -91 -110 -156.5t-134 -107.5l8 39q44 36 79 82.5t63 105.5q23 50 43 111t36 132t23.5 133t7.5 114q0 75 -17 135.5t-51 106.5v1z" />
    <glyph glyph-name="asterisk" unicode="*" horiz-adv-x="508" 
d="M295 337l31 155l-117 -101h-47l147 127h-146l16 42h147l-101 120h42l78 -94l26 136l58 18l-29 -147l109 87h49l-149 -120h151l-18 -42h-142l101 -127h-41l-80 101l-27 -137l-58 -18v0z" />
    <glyph glyph-name="plus" unicode="+" horiz-adv-x="632" 
d="M293 23l48 239h-238l11 54h238l47 238h54l-47 -238h238l-11 -54h-238l-47 -239h-55v0z" />
    <glyph glyph-name="comma" unicode="," horiz-adv-x="283" 
d="M70 86l97 70l72 -95q-3 -50 -18 -87.5t-44 -64.5q-28 -26 -66 -39.5t-87 -13.5l27 30q38 4 61 29.5t31 72.5l-73 98v0z" />
    <glyph glyph-name="hyphen" unicode="-" horiz-adv-x="313" 
d="M95 265l20 72h223l-21 -72h-222v0z" />
    <glyph glyph-name="period" unicode="." horiz-adv-x="283" 
d="M71 87l95 69l75 -95l-98 -73l-72 99v0z" />
    <glyph glyph-name="slash" unicode="/" horiz-adv-x="532" 
d="M-28 -144l621 987h64l-621 -987h-64v0z" />
    <glyph glyph-name="zero" unicode="0" horiz-adv-x="664" 
d="M333 -12q-49 0 -88 13.5t-68 41.5q-28 29 -42.5 67.5t-14.5 87.5q0 71 22.5 132t68.5 111t101.5 74.5t121.5 24.5q50 0 90 -13.5t69 -41.5t43.5 -66t14.5 -87q0 -73 -23 -134.5t-69 -111.5q-46 -49 -102 -73.5t-124 -24.5v0zM339 18q42 -1 75 14t57 46q17 21 31 53t27 75
q12 43 18 82.5t6 75.5q0 74 -31 110.5t-93 36.5q-46 0 -84.5 -24.5t-67.5 -74.5q-30 -49 -44.5 -113t-14.5 -141q0 -70 30 -105.5t91 -35.5v1z" />
    <glyph glyph-name="one" unicode="1" horiz-adv-x="433" 
d="M72 0l13 30h34q23 -1 37 2.5t19 10.5t12.5 31t16.5 65l48 245q5 25 7.5 43t2.5 27q0 11 -11 18t-32 8l-44 4l-1 31l212 26l-37 -156l-48 -241q-7 -40 -11 -60.5t-4 -23.5q0 -16 10.5 -23.5t31.5 -7.5l44 1l1 -30h-301v0z" />
    <glyph glyph-name="two" unicode="2" horiz-adv-x="568" 
d="M60 0l26 78q183 97 275 180t92 150q0 22 -7.5 40t-23.5 33t-34.5 22.5t-41.5 7.5q-59 0 -96.5 -27.5t-52.5 -81.5l-30 1l16 112q51 12 95 18.5t81 6.5q45 0 81.5 -8.5t62.5 -25.5q27 -17 40.5 -40t13.5 -52q0 -31 -12.5 -58.5t-38.5 -50.5q-25 -23 -85 -63t-155 -96
l-118 -68h369l-31 -78h-426v0z" />
    <glyph glyph-name="three" unicode="3" horiz-adv-x="535" 
d="M18 -118l64 65q37 -33 74.5 -50t76.5 -17q32 0 60 11t50 33q23 22 34.5 48.5t11.5 55.5q0 34 -13.5 61.5t-42.5 48.5q-28 21 -64 31.5t-80 10.5q-8 0 -18.5 -0.5t-22.5 -2.5l35 76q22 -1 43 -1.5t42 -2.5q35 8 64 24t51 39q23 23 34.5 47t11.5 49q0 23 -7.5 41.5
t-23.5 32.5q-15 14 -34.5 21.5t-44.5 7.5q-55 0 -90 -27.5t-49 -81.5l-31 1l17 110q53 13 98 20t83 7q41 0 72.5 -7.5t56.5 -22.5q24 -15 36 -35t12 -46q0 -54 -50 -101.5t-149 -88.5q76 -24 114 -66.5t38 -104.5q0 -45 -21 -83.5t-63 -72.5q-42 -35 -91 -51.5t-105 -16.5
q-46 0 -91 9.5t-88 28.5v0z" />
    <glyph glyph-name="four" unicode="4" horiz-adv-x="652" 
d="M395 19l-365 15l9 41l493 455l51 11l-92 -460l146 -6l-22 -66l-136 7q-6 -38 -8.5 -63.5t-2.5 -39.5t9 -20.5t28 -6.5h43l2 -30h-293l14 30h42q18 0 30 4.5t17 13.5t14 38t21 76v1zM408 84l69 346l-370 -332l301 -14v0z" />
    <glyph glyph-name="five" unicode="5" horiz-adv-x="541" 
d="M24 -117l60 63q27 -30 62.5 -45t78.5 -15q39 0 71 13.5t57 40.5q26 28 38 62t12 77q0 68 -47 102t-141 34q-18 0 -37.5 -2t-40.5 -6l64 323h379l-33 -85h-318l-43 -150q18 2 34 3.5t30 1.5q56 0 101 -12.5t79 -38.5q35 -26 52 -60t17 -76q0 -52 -24.5 -97.5t-73.5 -87.5
q-48 -42 -102.5 -63t-114.5 -21q-39 0 -79 9.5t-81 29.5v0z" />
    <glyph glyph-name="six" unicode="6" horiz-adv-x="620" 
d="M628 554h-30q2 7 2.5 13.5t0.5 10.5q0 15 -7.5 28t-22.5 23q-14 10 -33 15t-42 5q-46 0 -89.5 -24.5t-82.5 -74.5q-40 -50 -63 -108.5t-31 -126.5q48 65 102 97t112 32q35 0 63.5 -11.5t50.5 -34.5q23 -22 34.5 -51t11.5 -64q0 -58 -21.5 -109.5t-63.5 -96.5
q-42 -46 -90 -67.5t-103 -21.5q-47 0 -85 15.5t-66 48.5t-42 77.5t-14 99.5q0 90 31 169.5t92 148.5q62 69 132.5 103.5t150.5 34.5q30 0 62.5 -7.5t68.5 -21.5l-28 -102v0zM354 18q32 -1 60.5 15.5t51.5 50.5q23 33 35 73.5t12 87.5q0 75 -28.5 113t-85.5 38
q-36 0 -67.5 -15t-58.5 -46q-26 -31 -39 -67.5t-13 -79.5q0 -37 9 -68t28 -55t43 -36t53 -12v1z" />
    <glyph glyph-name="seven" unicode="7" horiz-adv-x="555" 
d="M65 -156q9 54 39 109t81 112l301 321l53 59h-402l34 85h459l-22 -55q-201 -215 -307.5 -369t-120.5 -250l-115 -12v0z" />
    <glyph glyph-name="eight" unicode="8" horiz-adv-x="596" 
d="M284 358l-10 6q-34 23 -51 54.5t-17 70.5q0 38 19.5 72.5t57.5 63.5q38 30 82 45t93 15q35 0 64 -8t51 -25t33 -38.5t11 -48.5q0 -50 -44 -99.5t-132 -98.5q61 -39 91.5 -80.5t30.5 -85.5q0 -41 -21 -78t-64 -70q-43 -34 -91.5 -49.5t-101.5 -15.5q-40 0 -74.5 10
t-61.5 32q-28 23 -41.5 50.5t-13.5 60.5q0 57 47.5 111t142.5 105v1zM308 337q-59 -32 -88.5 -78t-29.5 -105q0 -30 9.5 -54t28.5 -42t44.5 -27t57.5 -9q29 0 53.5 10.5t45.5 31.5t31.5 45.5t10.5 52.5q0 35 -30.5 71.5t-91.5 76.5l-41 27v0zM412 386q62 37 93 77t31 83
q0 22 -8 40.5t-25 32.5q-16 15 -36.5 22.5t-45.5 7.5q-27 0 -50 -9t-42 -28t-28.5 -41.5t-9.5 -49.5q0 -14 5.5 -28.5t16.5 -28.5q11 -15 27.5 -29.5t38.5 -28.5l33 -20v0z" />
    <glyph glyph-name="nine" unicode="9" horiz-adv-x="620" 
d="M93 -30h30v-20q0 -38 26 -57t78 -19q47 0 89.5 25t82.5 75q40 48 63.5 106.5t30.5 126.5q-49 -65 -103.5 -97.5t-113.5 -32.5q-34 0 -63 11.5t-52 34.5q-22 23 -34 52.5t-12 64.5q0 59 21 111.5t64 97.5q42 46 90.5 68.5t103.5 22.5q47 0 84.5 -16t65.5 -49t42 -77
t14 -100q0 -90 -30.5 -169.5t-92.5 -146.5q-61 -69 -132 -103.5t-151 -34.5q-25 0 -57 6t-72 17l28 103v0zM367 505q-34 -1 -62 -17t-52 -49q-23 -33 -35 -72t-12 -85q0 -76 29 -113.5t87 -37.5q38 0 70 15t58 45q27 30 40.5 65.5t13.5 77.5q0 37 -9.5 67.5t-29.5 54.5
q-19 24 -43.5 36t-54.5 12v1z" />
    <glyph glyph-name="colon" unicode=":" horiz-adv-x="274" 
d="M65 87l96 69l74 -95l-98 -73l-72 99v0zM142 472l96 69l74 -95l-98 -73l-72 99v0z" />
    <glyph glyph-name="semicolon" unicode=";" horiz-adv-x="272" 
d="M63 86l98 70l71 -95q-2 -50 -17.5 -87.5t-43.5 -64.5q-28 -26 -66 -39.5t-87 -13.5l27 30q38 4 61 29.5t30 72.5l-73 98v0zM141 472l95 69l75 -95l-99 -73l-71 99v0z" />
    <glyph glyph-name="less" unicode="&#x3c;" horiz-adv-x="632" 
d="M691 554l-15 -66l-447 -205l368 -202l-11 -58l-478 266l583 265v0z" />
    <glyph glyph-name="equal" unicode="=" horiz-adv-x="632" 
d="M86 177l11 54h530l-11 -54h-530v0zM120 346l10 54h531l-12 -54h-529v0z" />
    <glyph glyph-name="greater" unicode="&#x3e;" horiz-adv-x="632" 
d="M108 23l15 66l448 206l-368 202l11 57l477 -265l-583 -266v0z" />
    <glyph glyph-name="question" unicode="?" 
d="M145 59l78 61l59 -80l-77 -52l-60 71v0zM191 189q5 40 33.5 83t80.5 88l21 18q58 49 87 102.5t29 110.5q0 26 -7.5 48t-21.5 38q-15 17 -34 24.5t-43 7.5q-55 0 -90.5 -30t-50.5 -90l-30 1l23 116q50 16 94.5 25t84.5 9q41 0 73.5 -9t57.5 -28q24 -18 36.5 -42t12.5 -54
q0 -40 -25.5 -82t-76.5 -85l-51 -42q-42 -36 -67.5 -78t-35.5 -91l-2 -12l-98 -28v0z" />
    <glyph glyph-name="at" unicode="@" horiz-adv-x="861" 
d="M609 21q-43 -20 -85 -29.5t-83 -9.5q-70 0 -128.5 20.5t-104.5 62.5q-46 43 -69 96.5t-23 119.5q0 81 30 156t90 145q68 78 153.5 117.5t187.5 39.5q69 0 127 -21.5t104 -65.5q47 -44 69.5 -99t22.5 -120q0 -58 -18 -109t-55 -95q-36 -43 -78.5 -64.5t-92.5 -21.5
q-43 0 -64 16.5t-21 50.5q0 5 4 24.5t12 53.5l5 22h-10q-49 -84 -96.5 -125.5t-92.5 -41.5t-67.5 28t-22.5 85q0 59 20.5 113t60.5 103q41 50 84.5 74.5t91.5 24.5q11 0 31.5 -4t48.5 -12q2 -1 5 -1.5t8 -1.5l46 1l-56 -280q-3 -15 -4 -27t-1 -21q0 -23 12 -34.5t37 -11.5
q34 0 65.5 20.5t59.5 60.5q29 41 43.5 85.5t14.5 92.5q0 58 -21.5 106t-64.5 87t-96 58.5t-116 19.5q-82 0 -155.5 -32.5t-139.5 -97.5q-65 -65 -98 -138t-33 -154q0 -61 21 -110.5t62 -88.5q41 -38 94 -57.5t117 -19.5q38 0 78 9t81 27l10 -26v0zM596 399l21 103
q-20 10 -42.5 15t-46.5 5q-33 0 -60 -17t-50 -52q-22 -34 -33 -77.5t-11 -95.5q0 -39 11.5 -58t34.5 -19q35 0 79.5 49t96.5 146v1z" />
    <glyph glyph-name="A" unicode="A" horiz-adv-x="974" 
d="M44 41l66 66q23 -37 53.5 -54.5t67.5 -17.5q36 0 70 15t65 44q32 30 70 83.5t82 129.5l210 364q-27 2 -49.5 3.5t-41.5 1.5q-51 0 -90.5 -12.5t-67.5 -38.5q-28 -25 -41.5 -61.5t-13.5 -84.5l-96 -46q5 45 17.5 83t33.5 68q23 34 51 57.5t59 37.5q32 14 77.5 23.5
t104.5 13.5q12 0 30 1.5t43 3.5l99 19l7 -162l28 -338q5 -59 12 -98t16 -58q8 -19 24.5 -28t39.5 -9q4 0 18 1t39 2l-7 -31l-224 -37l-20 240h-266q-38 -68 -74.5 -114.5t-71.5 -73.5q-34 -26 -75 -39t-89 -13q-45 0 -84 14t-72 44v1zM531 258h242l-31 367l-211 -367v0z" />
    <glyph glyph-name="B" unicode="B" horiz-adv-x="785" 
d="M102 0l72 72h10q37 -1 62.5 7.5t38.5 24.5q14 17 27 54.5t24 95.5l86 430q-50 -1 -90.5 -14.5t-72.5 -40.5q-31 -27 -46.5 -62t-15.5 -79v-9l-94 -46q6 73 35 128t81 90t130 52.5t183 17.5q74 0 126.5 -7.5t83.5 -24.5q32 -16 48 -42t16 -63q0 -75 -56 -127t-169 -81
q95 -31 142 -72t47 -94q0 -47 -26 -87t-78 -72q-51 -32 -114.5 -47.5t-138.5 -15.5l-116 4l-195 8v0zM284 63l50 -11q38 -9 77 -13t81 -4q84 0 126 39t42 117q0 38 -12.5 68.5t-37.5 52.5q-25 23 -59 33.5t-78 10.5l-14 1l-11 -54q-16 -81 -57 -141t-107 -100v1zM465 388h26
q45 -1 82.5 12.5t66.5 40.5q30 26 44.5 60t14.5 75q0 57 -40.5 86t-120.5 29l-12 1l-61 -304v0z" />
    <glyph glyph-name="C" unicode="C" horiz-adv-x="683" 
d="M650 44q-78 -32 -146 -47t-127 -15q-63 0 -111.5 17t-83.5 52q-34 35 -51.5 85t-17.5 114q0 102 33 189t100 158t147.5 107t174.5 36q56 0 108.5 -7.5t100.5 -21.5l-41 -133h-31q2 10 3.5 19.5t1.5 16.5q0 22 -11.5 39t-34.5 30q-23 14 -53.5 20t-67.5 6
q-56 0 -105 -24.5t-91 -74.5q-28 -33 -50.5 -74t-40.5 -90q-17 -49 -26 -95t-9 -90q0 -52 14 -93.5t42 -72.5q28 -30 65.5 -45t86.5 -15q54 0 111.5 13.5t118.5 40.5l-9 -45v0z" />
    <glyph glyph-name="D" unicode="D" horiz-adv-x="972" 
d="M103 0l71 72l8 1q1 -1 2 -1h3q1 -1 3 -1h4h5h6q27 0 47 8t33 24q14 17 25 46t19 71l92 464q-50 -1 -90.5 -14.5t-71.5 -40.5t-46.5 -62t-15.5 -79v-9l-95 -46q12 143 116.5 215.5t300.5 72.5l141 1q82 -1 140.5 -16t94.5 -46q37 -30 55 -79.5t18 -118.5
q0 -112 -38.5 -199t-115.5 -150q-77 -64 -183.5 -94.5t-242.5 -30.5q-6 0 -17 0.5t-28 1.5l-240 10v0zM279 61l87 -15q35 -7 71 -10t73 -3q50 0 89 7t67 21q29 14 55 39t49 62q42 64 63.5 135.5t21.5 150.5q0 122 -67.5 182.5t-201.5 60.5l-61 1l-74 -374q-10 -52 -24 -90.5
t-32 -64.5q-17 -26 -46 -51.5t-70 -51.5v1z" />
    <glyph glyph-name="E" unicode="E" horiz-adv-x="735" 
d="M102 0l72 72h9q37 -1 62.5 6.5t39.5 23.5q14 15 26 49t22 86l89 447q-50 -1 -90.5 -14.5t-71.5 -40.5t-46.5 -62t-15.5 -79v-9l-95 -46q6 73 35 127.5t81 89.5q53 36 129.5 53.5t178.5 17.5l287 1l-43 -138h-31q2 8 3 17t1 16q0 20 -11 33t-33 20q-22 8 -62 11.5t-99 3.5
l-15 1l-57 -289h218l-50 -50q-55 6 -93 9.5t-58 3.5l-24 1l-10 -53q-9 -45 -22 -80.5t-30 -61.5q-9 -13 -20.5 -26t-25.5 -25q-14 -13 -30.5 -26t-35.5 -26l234 -8l51 -2q40 -1 77.5 12.5t71.5 41.5l-8 -38q-43 -44 -83.5 -65.5t-78.5 -21.5l-23 1l-425 17v0z" />
    <glyph glyph-name="F" unicode="F" horiz-adv-x="766" 
d="M354 334l35 39h52l61 311q-49 -1 -89.5 -14.5t-72.5 -40.5q-31 -27 -46.5 -62t-15.5 -79v-9l-95 -46q7 74 36 129t81 89q52 35 130 52.5t183 17.5l282 1l-44 -138h-32q3 9 5 18.5t2 19.5q0 32 -50 47.5t-150 15.5l-21 1l-62 -313h213l-48 -50q-40 4 -77 7t-72 3l-24 1
l-28 -143q-18 -92 -52.5 -163t-85.5 -125t-110.5 -81t-127.5 -27q-37 0 -69.5 14t-61.5 42l72 73q19 -40 50 -60t74 -20q39 0 70 17.5t53 52.5t42 97t38 151l34 172h-79v0z" />
    <glyph glyph-name="G" unicode="G" horiz-adv-x="758" 
d="M172 -156l83 46q29 -27 67 -40.5t84 -13.5q32 0 57 9.5t42 28.5t31 51.5t25 78.5q0 3 1.5 7.5t2.5 10.5q-43 -12 -89 -17t-93 -5q-62 0 -111.5 17t-86.5 53q-36 36 -54 85.5t-18 111.5q0 98 34 181t102 153q68 69 149.5 104t177.5 35q54 0 107 -7t105 -21l-39 -128h-30
q1 7 1.5 14.5t0.5 14.5q0 22 -11.5 39.5t-35.5 30.5q-23 14 -54 20t-69 6q-65 0 -122.5 -33t-107.5 -98q-50 -66 -75 -142.5t-25 -163.5q0 -52 16 -94t48 -73t75 -46t98 -15q33 0 61.5 4t52.5 11l49 245h-87q-43 -1 -82 -15t-74 -41l6 34q44 41 88 62.5t88 21.5l175 1
l-38 -151l-23 -115q-16 -79 -44 -136.5t-68 -94.5t-95 -55.5t-126 -18.5q-52 0 -94.5 12t-74.5 36v0z" />
    <glyph glyph-name="H" unicode="H" horiz-adv-x="1029" 
d="M353 358l33 39h60l55 280q-12 1 -20.5 2t-13.5 1q-39 0 -72.5 -14t-60.5 -42q-28 -28 -41.5 -62.5t-13.5 -74.5v-6l-95 -46q11 142 111.5 214t290.5 72l27 1l-65 -325h302l28 146q14 71 42.5 128t69.5 99q42 42 91.5 63t106.5 21q23 0 43 -3t38 -9l-42 -72
q-25 20 -48.5 31t-43.5 11q-25 0 -46 -11t-37 -32q-15 -22 -28 -59t-24 -89l-79 -365q-13 -59 -19 -98t-6 -58q0 -25 13.5 -38t41.5 -13q12 0 29.5 1.5t39.5 4.5l-7 -30l-246 -43l75 376h-301l-12 -58q-14 -70 -44.5 -126.5t-77.5 -100.5q-47 -43 -101 -64t-116 -21
q-45 0 -83 13t-68 41l68 71q23 -41 57.5 -61t79.5 -20q65 0 107.5 52t63.5 156l23 118h-85v0z" />
    <glyph glyph-name="I" unicode="I" horiz-adv-x="451" 
d="M5 0l74 72h32q28 -1 49 8t34 27t25 54t22 89l80 400h-133l71 72h318l-74 -72h-80l-69 -346q-16 -80 -57 -140t-107 -101l190 -3l-70 -72l-305 12v0z" />
    <glyph glyph-name="J" unicode="J" horiz-adv-x="531" 
d="M-57 -91l66 68q22 -47 56 -70.5t80 -23.5q31 0 55 11.5t41 34.5t31.5 62t25.5 94l112 565h-131l69 72h315l-76 -72h-75l-95 -479q-16 -80 -43.5 -139.5t-68.5 -102.5q-40 -43 -89 -64t-108 -21q-46 0 -86.5 16.5t-77.5 48.5h-1z" />
    <glyph glyph-name="K" unicode="K" horiz-adv-x="990" 
d="M39 44l69 71q24 -41 58.5 -60.5t77.5 -19.5q65 0 107.5 52t63.5 156l86 434q-13 1 -21.5 2t-13.5 1q-39 0 -72 -14t-61 -42q-27 -28 -41 -62.5t-14 -74.5v-6l-94 -46q5 69 32.5 122t77.5 90t118.5 55.5t156.5 18.5l43 1l-69 -349l255 242q66 61 120.5 92.5t96.5 31.5
q17 0 32.5 -4.5t31.5 -13.5l-67 -71q-10 8 -20.5 12.5t-20.5 4.5q-28 0 -68 -20.5t-91 -61.5q-51 -40 -95 -86.5t-82 -99.5q9 -16 32.5 -56.5t61.5 -106.5q54 -94 101 -141.5t86 -47.5q14 0 36.5 10t54.5 31l-7 -36q-42 -36 -77.5 -53t-64.5 -17q-33 0 -66 19.5t-66 59.5
q-34 41 -80 116.5t-105 186.5l-12 -61q-13 -70 -44 -126t-79 -100q-47 -44 -101 -65t-115 -21q-45 0 -82.5 12.5t-68.5 39.5v1z" />
    <glyph glyph-name="L" unicode="L" horiz-adv-x="669" 
d="M8 0l70 72h28q29 -1 50.5 7.5t34.5 24.5q14 17 25 49.5t21 81.5l50 251q11 55 36 100.5t65 81.5t85 54t95 18q23 0 48.5 -8t55.5 -25l-25 -120h-31q1 5 1.5 10.5t0.5 9.5q0 45 -23.5 68t-70.5 23q-46 0 -77 -39.5t-47 -118.5l-45 -224q-10 -51 -24 -90t-31 -66
q-18 -27 -46 -51t-66 -45l273 -3q59 -1 110.5 12.5t96.5 40.5l-7 -35q-34 -32 -60 -51.5t-43 -27.5q-17 -7 -39.5 -11t-51.5 -4l-459 15v0z" />
    <glyph glyph-name="M" unicode="M" horiz-adv-x="1158" 
d="M39 44l69 72q25 -41 59.5 -61.5t78.5 -20.5q29 0 54.5 12t47.5 37t37 57t23 72l92 465q-12 1 -20.5 2t-13.5 1q-40 0 -74 -14t-60 -43q-27 -28 -40.5 -64t-13.5 -79l-95 -45q5 67 32.5 120t76.5 90q50 38 116 57t149 19l40 1q45 -127 78 -256t54 -262l320 518l104 12
l-37 -156l-79 -399q-6 -28 -8.5 -49.5t-2.5 -36.5q0 -22 13 -32.5t40 -10.5q12 0 29.5 1t39.5 4l-6 -30l-242 -47l127 635l-334 -535l-50 -8v14q0 94 -23.5 212.5t-70.5 260.5l-40 -198q-37 -185 -116.5 -276.5t-202.5 -91.5q-43 0 -81 12.5t-70 39.5v1z" />
    <glyph glyph-name="N" unicode="N" horiz-adv-x="1029" 
d="M39 45l69 72q25 -41 59.5 -61.5t77.5 -20.5q29 0 55 12t48 36q22 25 37 57.5t23 72.5l92 464q-12 1 -21 2t-14 1q-40 0 -73.5 -14t-59.5 -43q-27 -28 -40.5 -64t-13.5 -79l-95 -45q5 64 31.5 115.5t74.5 91.5t109 59.5t135 19.5l47 1q25 -65 58 -134t74 -142l62 -109
q32 -58 56 -104t39 -81l56 283q14 72 39.5 128.5t61.5 96.5t79 60t94 20q9 0 18 -1t18 -3q8 -1 17 -4l18 -6l-35 -65q-22 16 -43 24.5t-41 8.5q-52 0 -87.5 -45.5t-53.5 -137.5l-73 -367l-23 -144l-63 -21q-9 26 -34.5 77t-67.5 127l-120 213q-24 41 -44 79t-35 72l-37 -187
q-18 -90 -48 -158.5t-71 -116.5q-42 -48 -92.5 -71t-110.5 -23q-42 0 -80 13t-72 40v1z" />
    <glyph glyph-name="O" unicode="O" horiz-adv-x="783" 
d="M373 -18q-60 0 -107.5 18t-82.5 55q-35 38 -52.5 88.5t-17.5 114.5q0 96 33 180t99 157q66 72 142.5 108.5t164.5 36.5q59 0 106.5 -18.5t81.5 -55.5q35 -37 52.5 -86.5t17.5 -112.5q0 -100 -32 -186t-97 -157q-64 -72 -141 -107t-167 -35v0zM392 15q64 -1 118 32.5
t100 100.5q45 67 68 147.5t23 174.5q0 119 -41.5 178.5t-124.5 59.5q-63 0 -117.5 -33t-100.5 -99q-46 -67 -68.5 -146.5t-22.5 -172.5q0 -121 41.5 -182t124.5 -61v1z" />
    <glyph glyph-name="P" unicode="P" horiz-adv-x="765" 
d="M102 0l73 72h9l21 -1q29 -1 50 9t34 29q14 19 26 58t24 97l83 420q-50 -1 -90.5 -14.5t-71.5 -40.5t-47 -62t-16 -79l1 -9l-95 -46q7 75 36 130t81 90q53 35 132.5 52t187.5 17q78 0 133 -8.5t88 -25.5q34 -16 50.5 -44t16.5 -67q0 -31 -11.5 -63.5t-34.5 -64.5
q-22 -32 -50.5 -57t-63.5 -43q-40 -20 -85.5 -30t-96.5 -10l-13 1l19 30h8q47 -1 86.5 14.5t71.5 46.5t47.5 69t15.5 84q0 68 -48.5 102.5t-146.5 34.5l-79 -394q-15 -76 -55 -134.5t-106 -100.5l188 -2l-68 -72l-304 12v0z" />
    <glyph glyph-name="Q" unicode="Q" horiz-adv-x="742" 
d="M62 38l57 56l78 -32q89 6 160 31.5t124 68.5q35 29 64 67.5t51 86.5q23 49 34 97t11 95q0 43 -11 79t-33 65t-49.5 43t-60.5 14q-51 0 -95.5 -25.5t-82.5 -76.5q-37 -52 -56.5 -112t-19.5 -128q0 -67 22.5 -100.5t67.5 -33.5q27 0 55 10t57 30l-8 -41q-39 -30 -77 -44.5
t-76 -14.5q-31 0 -56.5 12t-44.5 36t-28.5 56t-9.5 72q0 74 29 141.5t87 128.5q59 60 124 90t137 30q50 0 92.5 -17t77.5 -52q35 -34 52 -77t17 -93q0 -81 -31.5 -152t-93.5 -133q-62 -61 -150 -106.5t-203 -76.5l303 -122q41 -17 74.5 -25t61.5 -8q32 0 66.5 11.5
t71.5 34.5l-8 -38q-45 -38 -85 -57.5t-75 -19.5q-19 0 -47.5 7.5t-65.5 21.5l-507 201v0z" />
    <glyph glyph-name="R" unicode="R" horiz-adv-x="876" 
d="M102 0l72 72h7q1 -1 3.5 -1.5t6.5 -1.5t8.5 -1h9.5q26 0 45 9t33 27t25 49.5t20 74.5l90 456q-50 -1 -90.5 -14.5t-71.5 -40.5t-46.5 -62t-15.5 -79v-9l-95 -46q7 74 36 129t81 90t130.5 52t184.5 17q82 0 139.5 -7.5t90.5 -23.5t49.5 -43.5t16.5 -66.5
q0 -65 -47.5 -120.5t-142.5 -101.5l117 -196q32 -53 55 -79.5t38 -26.5q17 0 46.5 22t72.5 65l-9 -46q-54 -56 -93 -82.5t-65 -26.5q-33 0 -69.5 36t-75.5 109l-110 204h-92l-9 -44q-15 -74 -55.5 -131.5t-106.5 -99.5l191 -2l-68 -72l-306 12v0zM461 367h130
q66 32 99.5 82.5t33.5 117.5q0 62 -45 93t-134 31l-19 1l-65 -325v0z" />
    <glyph glyph-name="S" unicode="S" horiz-adv-x="580" 
d="M56 27l68 69q45 -38 91.5 -56t94.5 -18q34 0 61 9.5t48 28.5q22 19 32.5 43.5t10.5 54.5q0 29 -20 61t-60 68l-69 62q-38 33 -62 57t-33 37q-9 14 -13.5 32t-4.5 41q0 46 19 85t58 73q38 33 84.5 49.5t99.5 16.5q34 0 73.5 -10.5t85.5 -30.5l-24 -121h-31v6t1 6v4.5v3.5
q0 23 -9 41.5t-28 32.5t-43.5 21.5t-54.5 7.5q-31 0 -58 -9.5t-48 -28.5q-22 -19 -32.5 -41.5t-10.5 -50.5q0 -19 5.5 -36t15.5 -32q11 -16 34 -38t57 -51l58 -49q48 -43 72 -81.5t24 -74.5q0 -46 -22.5 -86.5t-67.5 -74.5q-46 -34 -99.5 -50t-116.5 -16q-48 0 -94.5 11
t-91.5 33v1z" />
    <glyph glyph-name="T" unicode="T" horiz-adv-x="714" 
d="M188 0l73 72l7 -2q3 -2 10 -2h18q28 0 48 9.5t33 28.5q13 20 25 57.5t23 93.5l78 393h-124q-94 -1 -141 -38.5t-47 -111.5q0 -9 1 -19.5t4 -23.5l-102 -46q11 70 42 127t83 99t117 63t144 21l207 1q71 -1 117.5 3.5t68.5 14.5q23 9 38.5 30t23.5 52l73 31
q-17 -47 -50 -83.5t-82 -64.5t-104.5 -42t-117.5 -14l-49 1l-67 -340q-9 -47 -22.5 -83.5t-31.5 -62.5q-17 -27 -45 -52t-66 -50l189 -2l-68 -72l-306 12v0z" />
    <glyph glyph-name="U" unicode="U" horiz-adv-x="976" 
d="M710 -18l30 150q-54 -76 -112 -113t-120 -37q-43 0 -77 14.5t-60 44.5t-39 70.5t-13 90.5q0 32 7.5 83.5t22.5 122.5t32 138t36 130q-12 2 -20.5 3t-13.5 1q-40 0 -74 -14t-60 -43q-27 -28 -40.5 -64t-13.5 -79l-95 -45q11 142 110.5 214t286.5 72l35 1
q-22 -71 -41 -143.5t-35 -149.5q-16 -76 -24 -132t-8 -93q0 -40 7.5 -70.5t23.5 -53.5q16 -22 37.5 -33t49.5 -11q30 0 59.5 12.5t57.5 37.5q29 26 54 61t46 81l98 494l111 12l-37 -156l-70 -350q-10 -49 -14.5 -80t-4.5 -45q0 -27 16 -40t49 -13q11 0 26 1t33 4l-7 -31
l-249 -42v0z" />
    <glyph glyph-name="V" unicode="V" horiz-adv-x="891" 
d="M498 -12l3 127q0 188 -17 319.5t-52 204.5q-37 77 -81 116t-97 39q-48 0 -90 -30.5t-79 -91.5l-24 15q54 83 113 125t123 42q153 0 230 -176t77 -528l156 246q71 110 106.5 179.5t35.5 97.5q0 9 -11 13.5t-33 4.5l-39 1l6 30h210l-6 -30h-41l-439 -692l-51 -12v0z" />
    <glyph glyph-name="W" unicode="W" horiz-adv-x="1158" 
d="M452 -12l8 290q0 127 -14 223t-41 162q-28 65 -69 98t-94 33q-44 0 -86 -27t-81 -80l-22 14q61 76 119 114.5t113 38.5q70 0 122.5 -39.5t88.5 -119.5q30 -68 45.5 -179t15.5 -264l1 -60l250 509l47 13q4 -38 9 -76.5t11 -76.5l10 -60q9 -62 18 -146.5t19 -194.5l105 206
q60 118 90.5 193.5t30.5 106.5q0 12 -14 18.5t-41 6.5l-17 1l6 30h205l-6 -30h-45l-359 -692l-49 -12l1 59q0 138 -12.5 265.5t-37.5 242.5l-277 -555l-50 -12v0z" />
    <glyph glyph-name="X" unicode="X" horiz-adv-x="767" 
d="M406 343l-67 203q-21 61 -40.5 91.5t-37.5 30.5q-17 0 -45 -24t-66 -72l12 63q36 52 72 78t70 26q43 0 79 -42.5t64 -127.5l43 -126l118 144q62 76 116 114t100 38q17 0 32 -5t28 -14l-83 -82q-9 4 -17 6.5t-14 2.5q-26 0 -75.5 -42t-123.5 -126l-69 -77l78 -227
q21 -64 42 -95.5t42 -31.5q20 0 46 20.5t57 61.5l-11 -54q-34 -48 -69.5 -71t-70.5 -23q-43 0 -76.5 35t-58.5 107l-61 179l-152 -188q-55 -68 -99 -100.5t-79 -32.5q-22 0 -43.5 10t-41.5 31l78 79q8 -14 18 -20.5t22 -6.5q26 0 77 44.5t129 133.5l77 90v0z" />
    <glyph glyph-name="Y" unicode="Y" horiz-adv-x="818" 
d="M196 -160l67 64q29 -35 63.5 -52t74.5 -17q62 0 107.5 59.5t75.5 177.5l41 166q-65 -107 -118.5 -159.5t-95.5 -52.5q-33 0 -52.5 35.5t-25.5 107.5l-28 365q-6 72 -22 108.5t-42 36.5q-19 0 -44.5 -14.5t-57.5 -43.5l7 41q40 38 74 57.5t62 19.5q29 0 51.5 -14.5
t37.5 -44.5q15 -29 25.5 -78.5t15.5 -118.5l20 -267q3 -49 13 -73t26 -24q12 0 31 14t44 42q26 29 50.5 62.5t48.5 72.5l103 412l113 9l-45 -153l-95 -384q-49 -199 -141 -298.5t-226 -99.5q-42 0 -81 11t-77 33v0z" />
    <glyph glyph-name="Z" unicode="Z" horiz-adv-x="668" 
d="M41 -12l12 63l543 573q-27 -7 -51.5 -9.5t-45.5 -2.5q-22 0 -48.5 4t-56.5 11l-54 14q-4 0 -8 1t-7 2q-4 0 -7 1l-6 2q-21 5 -35.5 7.5t-22.5 2.5q-19 0 -41.5 -7.5t-47.5 -22.5l8 41q38 32 75.5 48.5t75.5 16.5q9 0 24.5 -2t36.5 -7l57 -12q32 -8 64 -11.5t65 -3.5
q38 0 71 6t61 18l-13 -65l-533 -569q30 7 57 10.5t51 3.5q15 0 36 -2t48 -7l87 -14q5 -2 16 -4.5t29 -5.5q17 -4 30 -5.5t23 -1.5q37 0 70 19.5t63 58.5l-10 -48q-41 -56 -81.5 -82.5t-81.5 -26.5q-19 0 -46.5 4.5t-65.5 12.5l-65 13q-27 4 -50.5 7t-44.5 3q-29 0 -74 -9
t-107 -25v0z" />
    <glyph glyph-name="bracketleft" unicode="[" horiz-adv-x="352" 
d="M75 -144l196 987h242l-6 -30h-157l-184 -927h156l-6 -30h-241v0z" />
    <glyph glyph-name="backslash" unicode="\" horiz-adv-x="507" 
d="M416 -144l-238 987h50l238 -987h-50v0z" />
    <glyph glyph-name="bracketright" unicode="]" horiz-adv-x="352" 
d="M416 843l-197 -987h-240l6 30h156l184 927h-157l6 30h242v0z" />
    <glyph glyph-name="asciicircum" unicode="^" horiz-adv-x="632" 
d="M89 192l371 530l160 -530h-58l-121 408l-287 -408h-65v0z" />
    <glyph glyph-name="underscore" unicode="_" 
d="M35 -63l13 63h403l-12 -63h-404v0z" />
    <glyph glyph-name="grave" unicode="`" horiz-adv-x="584" 
d="M551 665l-62 -39q-18 34 -43 66.5t-58 62.5l58 46q30 -32 56.5 -65.5t48.5 -71.5v1z" />
    <glyph glyph-name="a" unicode="a" horiz-adv-x="668" 
d="M480 265h-9q-28 -62 -61 -112.5t-72 -88.5q-38 -39 -74.5 -57.5t-70.5 -18.5q-52 0 -77.5 31.5t-25.5 95.5q0 71 28 140.5t85 138.5q59 71 130 106t156 35q35 0 71.5 -1.5t74.5 -4.5l-35 -144l-47 -241q-6 -29 -9 -47.5t-3 -26.5q0 -16 7 -23.5t22 -7.5q24 0 60.5 26.5
t85.5 80.5l-9 -44q-54 -58 -102 -86t-90 -28q-36 0 -53.5 17.5t-17.5 54.5q0 12 3 32.5t9 50.5l24 122v0zM519 460q-31 13 -61.5 19.5t-60.5 6.5q-44 0 -79.5 -28t-62.5 -84q-31 -67 -46.5 -126.5t-15.5 -112.5q0 -38 11.5 -57t33.5 -19q21 0 51 22t70 66q39 44 73.5 94.5
t64.5 106.5l22 112v0z" />
    <glyph glyph-name="b" unicode="b" horiz-adv-x="614" 
d="M90 0l35 144l67 337q18 88 51 157t82 118t108 73.5t129 24.5q24 0 46 -2.5t42 -7.5l-67 -69q-28 12 -53 18.5t-45 6.5q-39 0 -68 -14t-49 -43q-19 -28 -36.5 -81.5t-33.5 -132.5l-52 -264h8q28 61 61.5 110.5t71.5 88.5q39 38 75.5 57t70.5 19q51 0 77 -32t26 -96
q0 -72 -28.5 -141.5t-84.5 -137.5q-58 -70 -129 -104t-154 -34h-13.5h-14.5q-8 1 -17 1h-18l-87 4v0zM207 68q30 -14 60.5 -21t61.5 -7q44 0 79 28t62 85q32 66 47.5 126t15.5 113q0 38 -11 57t-34 19q-21 0 -51 -22t-70 -66q-39 -44 -73.5 -94.5t-64.5 -107.5l-22 -110v0z
" />
    <glyph glyph-name="c" unicode="c" horiz-adv-x="546" 
d="M524 134l-7 -38q-80 -55 -146 -81.5t-117 -26.5q-35 0 -63.5 11t-49.5 35q-22 24 -32.5 55.5t-10.5 71.5q0 71 26.5 136t80.5 125q54 59 113 88.5t123 29.5q14 0 28 -1.5t29 -4.5q14 -3 28 -7.5t28 -10.5l-33 -125h-30l2 7q2 10 3.5 18.5t1.5 14.5q0 34 -23 51t-69 17
q-43 0 -78.5 -23t-64.5 -69q-28 -46 -42.5 -103.5t-14.5 -127.5q0 -66 25 -99t74 -33q47 0 101.5 22t117.5 67v1z" />
    <glyph glyph-name="d" unicode="d" horiz-adv-x="667" 
d="M480 265h-9q-28 -62 -61.5 -112.5t-71.5 -89.5q-39 -38 -75 -56.5t-70 -18.5q-52 0 -77.5 32t-25.5 96q0 44 12.5 90t37.5 94q26 48 58.5 88.5t72.5 72.5q27 22 54 37t53 22q27 8 66 11.5t90 3.5q14 48 29 85t31 62q16 26 38 50t50 46q48 38 101.5 57t111.5 19
q24 0 46.5 -2.5t41.5 -7.5l-67 -69q-29 12 -53.5 18.5t-44.5 6.5q-39 0 -68.5 -14t-49.5 -43q-19 -28 -37 -81.5t-34 -131.5l-76 -386q-6 -29 -9 -47t-3 -26q0 -16 7 -24t22 -8q24 0 60.5 26.5t85.5 80.5l-9 -44q-54 -58 -102 -86t-90 -28q-36 0 -53.5 17.5t-17.5 54.5
q0 12 3 32.5t9 50.5l24 122v0zM519 460q-31 13 -61.5 19.5t-60.5 6.5q-44 0 -79.5 -28t-62.5 -84q-31 -67 -47 -126.5t-16 -112.5q0 -38 11.5 -57t34.5 -19q21 0 51 22t70 66q39 44 73.5 94.5t64.5 107.5l22 111v0z" />
    <glyph glyph-name="e" unicode="e" horiz-adv-x="541" 
d="M525 133l-7 -38q-78 -55 -144 -81t-121 -26q-34 0 -62 11t-50 36q-22 24 -32.5 55.5t-10.5 70.5q0 68 26.5 133t78.5 126q53 61 109 91t116 30q22 0 40 -7.5t31 -21.5q13 -15 19.5 -34t6.5 -42q0 -47 -24 -87.5t-71 -74.5q-48 -34 -105 -50.5t-124 -16.5v-21
q0 -73 26 -108.5t78 -35.5q45 0 100 22.5t120 67.5v1zM202 238q55 4 97.5 18t73.5 38q31 23 46.5 54.5t15.5 68.5q0 38 -14 56.5t-41 18.5q-29 0 -57 -19.5t-56 -58.5q-27 -39 -43.5 -83t-21.5 -94v1z" />
    <glyph glyph-name="f" unicode="f" horiz-adv-x="408" 
d="M-208 -318l70 72q25 -9 49 -14t48 -5q34 0 60.5 12t45.5 36q19 23 33 62.5t23 93.5l94 555h-110l35 36h82l2 6q14 70 46 127.5t82 101.5t108.5 66.5t124.5 22.5q21 0 41 -2t38 -6l-70 -74q-22 13 -45.5 20.5t-47.5 7.5q-37 0 -64 -11t-45 -32q-18 -22 -32.5 -61.5
t-26.5 -97.5l-14 -68h183l-40 -44q-31 3 -62 5t-62 2l-26 1l-71 -420q-16 -95 -48 -169t-80 -126t-107.5 -78t-131.5 -26q-20 0 -40 2t-41 5h-1z" />
    <glyph glyph-name="g" unicode="g" horiz-adv-x="614" 
d="M151 7q-29 14 -43.5 43.5t-14.5 73.5q0 72 29.5 142t87.5 137q57 66 127.5 99t155.5 33q16 0 50 -1.5t86 -4.5l-35 -144l-23 -113q-9 -46 -15 -79t-9 -54q-13 -86 -26.5 -145.5t-27.5 -92.5q-13 -34 -37 -67t-59 -65q-51 -47 -109 -70.5t-123 -23.5q-43 0 -78 8.5
t-62 25.5q-25 16 -38.5 38t-13.5 49q0 54 44 106.5t134 103.5v1zM474 265h-8q-26 -59 -57 -105t-67 -81q-36 -34 -74 -55t-78 -25q-64 -44 -96 -85t-32 -79q0 -25 12 -45.5t36 -37.5q23 -17 52 -26t63 -9q44 0 78.5 17t59.5 51q26 34 44 88t28 127l39 265v0zM512 458
q-29 13 -58.5 20.5t-58.5 7.5q-32 0 -59 -14.5t-50 -43.5q-18 -22 -34.5 -56.5t-30.5 -78.5q-14 -45 -21.5 -83t-7.5 -70q0 -34 10.5 -51.5t32.5 -17.5q48 0 112.5 69.5t143.5 208.5l21 109v0z" />
    <glyph glyph-name="h" unicode="h" horiz-adv-x="664" 
d="M84 -5l36 149l67 337q17 88 50.5 157t82.5 118t108 73.5t129 24.5q24 0 46 -2.5t42 -7.5l-67 -69q-29 12 -53.5 18.5t-44.5 6.5q-39 0 -68 -14t-49 -43q-19 -28 -36.5 -81.5t-33.5 -132.5l-53 -264h8q30 61 64.5 111.5t73.5 88.5q38 38 74 56.5t69 18.5q40 0 60 -22
t20 -66q0 -15 -2 -33t-6 -38l-47 -237q-6 -29 -9 -47.5t-3 -26.5q0 -16 7 -23.5t22 -7.5q24 0 60.5 26.5t85.5 80.5l-9 -44q-54 -58 -102 -86t-90 -28q-35 0 -52.5 17.5t-17.5 54.5q0 12 2.5 32.5t8.5 50.5l48 240q2 13 3.5 24.5t1.5 21.5q0 20 -7.5 30t-21.5 10
q-46 0 -111 -74t-148 -222l-35 -173l-103 -5v0z" />
    <glyph glyph-name="i" unicode="i" horiz-adv-x="376" 
d="M432 147l-9 -45q-54 -58 -102 -86t-90 -28q-35 0 -52.5 17.5t-17.5 54.5q0 12 2.5 33t8.5 49l34 171q7 35 10.5 59t3.5 36q0 20 -8 30.5t-24 10.5q-11 0 -30.5 -4.5t-48.5 -12.5l6 31l239 78l-37 -156l-48 -241q-6 -29 -8.5 -47t-2.5 -26q0 -16 7 -24t22 -8q24 0 60 26.5
t85 80.5v1zM253 626l33 67l137 90l-42 -90l-128 -67v0z" />
    <glyph glyph-name="j" unicode="j" horiz-adv-x="331" 
d="M-212 -314l66 69q14 -6 26.5 -10.5t24.5 -8.5q13 -3 25.5 -4.5t25.5 -1.5q62 0 104 51t63 152l75 380q6 35 9.5 59t3.5 36q0 20 -8 30.5t-23 10.5q-11 0 -30.5 -4.5t-47.5 -12.5l5 31l239 78l-37 -156l-60 -302q-13 -65 -27 -113.5t-29 -81.5t-37.5 -63t-51.5 -57
q-49 -47 -107 -70t-125 -23q-22 0 -43 3t-40 8h-1zM241 626l33 67l140 90l-44 -90l-129 -67v0z" />
    <glyph glyph-name="k" unicode="k" horiz-adv-x="631" 
d="M87 -5l37 149l66 337q18 88 51 157t82 118t108 73.5t129 24.5q24 0 46 -2.5t42 -7.5l-67 -69q-28 12 -53 18.5t-45 6.5q-33 0 -59.5 -11t-47.5 -34q-12 -13 -21.5 -29t-16.5 -36q-7 -19 -17.5 -59.5t-24.5 -101.5l-48 -213h6q23 49 53.5 90t67.5 72q38 32 75 47t74 15
q41 0 62 -20t21 -59q0 -41 -17 -76t-50 -63q-34 -28 -82 -47t-110 -30q69 -96 120 -144t85 -48q21 0 48 14.5t58 44.5l-7 -34q-49 -46 -87.5 -68t-67.5 -22q-12 0 -23.5 3t-23.5 8t-23.5 13.5t-23.5 19.5q-24 23 -65 74t-100 130l-47 -236l-104 -5v0zM244 265l-1 -7h16
q52 -1 96.5 13t81.5 42t55.5 61t18.5 70q0 24 -9.5 36t-28.5 12q-41 0 -98 -57t-131 -171v1z" />
    <glyph glyph-name="l" unicode="l" horiz-adv-x="339" 
d="M392 150l-9 -45q-58 -59 -107.5 -88t-90.5 -29q-34 0 -51.5 18t-17.5 55q0 15 2.5 36t7.5 47l67 337q17 88 50 157t82 118t108 73.5t129 24.5q24 0 46.5 -2.5t41.5 -7.5l-67 -69q-28 12 -52.5 18.5t-44.5 6.5q-39 0 -68 -14t-49 -43q-19 -28 -36.5 -81.5t-33.5 -132.5
l-77 -385q-6 -29 -8.5 -47.5t-2.5 -26.5q0 -16 7 -23.5t22 -7.5q16 0 47.5 22t78.5 65q4 3 10.5 9t15.5 14v1z" />
    <glyph glyph-name="m" unicode="m" horiz-adv-x="1023" 
d="M131 -5l36 149l48 241q5 27 8 45t3 27q0 15 -7.5 23t-21.5 8q-24 0 -60.5 -27t-84.5 -80l9 46q53 56 100.5 84.5t90.5 28.5q35 0 53 -18.5t18 -54.5q0 -13 -3 -33.5t-8 -49.5l-24 -119h6q32 62 66 113t71 88q37 38 71 56t65 18q17 0 30.5 -6t24.5 -19t17 -29t6 -36
q0 -14 -2 -31t-7 -37l-23 -117h7q27 60 59 110t69 88q37 39 70.5 58t64.5 19q43 0 64.5 -23t21.5 -68q0 -14 -2 -31t-6 -37l-47 -237q-6 -29 -8.5 -47.5t-2.5 -26.5q0 -16 7 -23.5t22 -7.5q24 0 60 26.5t85 80.5l-9 -44q-53 -58 -101 -86t-91 -28q-35 0 -52.5 17.5
t-17.5 54.5q0 12 2.5 32.5t8.5 50.5l48 239q3 16 5 27.5t2 18.5q0 20 -8 30.5t-23 10.5q-43 0 -104.5 -73.5t-141.5 -220.5l-36 -175l-96 -5l77 386q3 16 4.5 27.5t1.5 18.5q0 21 -7.5 31.5t-21.5 10.5q-19 0 -46 -21.5t-63 -64.5q-35 -43 -70 -96t-69 -116l-36 -171
l-102 -5v0z" />
    <glyph glyph-name="n" unicode="n" horiz-adv-x="710" 
d="M131 -5l36 149l48 241q5 27 8 45t3 27q0 15 -7.5 23t-21.5 8q-24 0 -60.5 -27t-84.5 -80l9 46q53 56 100.5 84.5t90.5 28.5q35 0 53 -18.5t18 -54.5q0 -13 -3 -33.5t-8 -49.5l-24 -119h7q31 61 65.5 111.5t72.5 88.5t74 56.5t69 18.5q40 0 60 -22t20 -66q0 -15 -2 -32.5
t-6 -38.5l-47 -237q-6 -29 -9 -47.5t-3 -26.5q0 -16 7 -23.5t22 -7.5q24 0 60.5 26.5t85.5 80.5l-9 -44q-54 -58 -102 -86t-90 -28q-35 0 -52.5 17.5t-17.5 54.5q0 12 2.5 32.5t8.5 50.5l48 240q3 13 4.5 24.5t1.5 21.5q0 20 -7.5 30t-22.5 10q-46 0 -110.5 -74t-147.5 -222
l-36 -173l-103 -5v0z" />
    <glyph glyph-name="o" unicode="o" horiz-adv-x="582" 
d="M247 -12q-32 0 -58.5 11.5t-48.5 36.5q-21 26 -31.5 57t-10.5 68q0 71 26.5 136t79.5 124q53 60 111 89.5t121 29.5q34 0 62 -12t50 -36q22 -25 33 -56t11 -69q0 -73 -27 -138.5t-80 -124.5t-112.5 -87.5t-125.5 -28.5v0zM303 30q36 -1 67.5 22.5t59.5 69.5
q28 47 41.5 101t13.5 115q0 80 -24.5 120.5t-74.5 40.5q-34 0 -65.5 -24t-60.5 -71q-28 -48 -41.5 -102t-13.5 -115q0 -79 24.5 -118.5t73.5 -39.5v1z" />
    <glyph glyph-name="p" unicode="p" horiz-adv-x="664" 
d="M-207 -316l66 70q26 -12 52 -18t52 -6q61 0 102 51.5t62 154.5l75 377q6 35 9.5 59t3.5 36q0 20 -8 30.5t-23 10.5q-11 0 -30.5 -4.5t-48.5 -12.5l6 31l239 78l-38 -157l-23 -119h8q28 61 61 110.5t72 88.5q39 38 75 57t70 19q52 0 78 -32t26 -96q0 -76 -29.5 -147
t-89.5 -139q-59 -67 -122 -100t-130 -33q-7 0 -21 1.5t-35 4.5h-3h-4q-2 1 -4 1h-5q-19 -79 -52.5 -139t-81.5 -102q-47 -42 -105 -63t-128 -21q-17 0 -36 2t-39 7h-1zM250 68q30 -14 60.5 -21t61.5 -7q44 0 79 28t62 85q32 66 47.5 126t15.5 113q0 38 -11 57t-34 19
q-21 0 -51 -22t-69 -66q-40 -44 -74.5 -94.5t-65.5 -107.5l-21 -110v0z" />
    <glyph glyph-name="q" unicode="q" horiz-adv-x="620" 
d="M474 265h-7q-27 -62 -60 -112t-72 -89q-38 -39 -74 -57.5t-70 -18.5q-51 0 -76 31.5t-25 95.5q0 71 28 140.5t85 138.5q58 71 129 106t155 35q29 0 64.5 -1.5t77.5 -4.5l-34 -144l-88 -437q-10 -50 -15 -85t-5 -54q0 -21 8.5 -32t25.5 -11q14 0 34.5 4t45.5 12l-7 -34
l-243 -73l37 157l86 433v0zM513 459q-27 13 -57 20t-62 7q-43 0 -78 -28t-61 -84q-31 -67 -47 -126.5t-16 -112.5q0 -38 11.5 -57t33.5 -19q27 0 61 28t76 83q48 64 77.5 108.5t39.5 69.5l22 111v0z" />
    <glyph glyph-name="r" unicode="r" horiz-adv-x="562" 
d="M137 -5l36 149l48 239q3 17 5 32.5t2 28.5q0 21 -7.5 31.5t-21.5 10.5q-26 0 -63 -27.5t-85 -82.5l9 44q56 60 104.5 90.5t90.5 30.5q35 0 53 -20t18 -61q0 -18 -2 -37.5t-7 -41.5l-24 -116h7q29 60 63 110t74 88q40 39 76.5 58t69.5 19q17 0 32.5 -3.5t28.5 -11.5
l-65 -87q-15 9 -27 14t-22 5q-48 0 -111 -70t-143 -210l-35 -177l-104 -5v0z" />
    <glyph glyph-name="s" unicode="s" horiz-adv-x="451" 
d="M33 16l64 66q32 -24 64.5 -35.5t65.5 -11.5q20 0 37 5.5t31 15.5q14 11 21 24t7 28q0 17 -14 41t-41 54l-45 50q-33 34 -49 64t-16 54q0 33 16 63t47 55q32 26 68 38.5t76 12.5q23 0 47.5 -4.5t52.5 -13.5l-22 -107h-30l1 8v1.5t1 2.5v3.5v2.5q0 33 -21.5 49.5
t-63.5 16.5q-48 0 -71.5 -19.5t-23.5 -57.5q0 -19 14 -44.5t42 -57.5l41 -44q32 -38 48.5 -68t16.5 -54q0 -32 -17 -61t-52 -55t-74.5 -38t-83.5 -12q-31 0 -65 7t-72 20v1z" />
    <glyph glyph-name="t" unicode="t" horiz-adv-x="455" 
d="M222 494h-112l34 36h85l27 138l101 24l-32 -162h184l-40 -43q-31 2 -59.5 4t-52.5 2l-39 1l-67 -335q-5 -27 -7.5 -45t-2.5 -29q0 -19 8.5 -28.5t25.5 -9.5q26 0 62 19.5t82 58.5l-8 -44q-48 -47 -93 -70t-89 -23q-42 0 -63 22t-21 68q0 17 2.5 38.5t8.5 48.5l66 329v0z
" />
    <glyph glyph-name="u" unicode="u" horiz-adv-x="697" 
d="M516 265h-8q-70 -140 -137.5 -208.5t-133.5 -68.5q-39 0 -58.5 22.5t-19.5 68.5q0 13 2 29.5t6 35.5l47 241q6 27 9 45t3 27q0 15 -7.5 23t-21.5 8q-24 0 -60.5 -27t-85.5 -80l9 46q53 56 101 84.5t91 28.5q35 0 53 -18.5t18 -54.5q0 -12 -3 -33t-9 -50l-48 -239
q-3 -17 -4.5 -28.5t-1.5 -18.5q0 -19 7 -29t22 -10q18 0 46 22t65 66t71.5 96t65.5 110l35 177l103 6l-36 -151l-48 -241q-6 -29 -8.5 -47.5t-2.5 -26.5q0 -16 7 -23.5t22 -7.5q24 0 60 26.5t85 80.5l-8 -44q-54 -58 -102 -86t-90 -28q-36 0 -53.5 17.5t-17.5 54.5
q0 12 3 33t9 50l24 122v0z" />
    <glyph glyph-name="v" unicode="v" horiz-adv-x="704" 
d="M302 -12l3 66q0 95 -9 171.5t-26 131.5q-18 56 -42 84t-54 28q-31 0 -63 -29t-66 -88l15 73q44 57 85 86t79 29q85 0 127.5 -107t42.5 -320v-26l40 49q89 106 133.5 184t44.5 127q0 23 -8 43.5t-24 38.5l104 12q12 -19 18 -35t6 -30q0 -21 -8 -44t-25 -49
q-17 -25 -53.5 -70.5t-92.5 -110.5l-175 -202l-52 -12v0z" />
    <glyph glyph-name="w" unicode="w" horiz-adv-x="944" 
d="M289 -12q0 12 0.5 23.5t0.5 23.5q1 11 1 23v24q0 110 -6 186t-18 118q-11 43 -32.5 64t-51.5 21q-28 0 -61.5 -30t-71.5 -89l12 67q44 60 86 90.5t82 30.5q75 0 112.5 -98.5t37.5 -295.5l-1 -48q83 117 130 223.5t59 202.5l46 12q33 -109 49.5 -215.5t16.5 -212.5
q36 47 66 95.5t55 99.5t37.5 89.5t12.5 64.5q0 15 -5 33t-16 39l109 7q4 -13 6 -23.5t2 -19.5q0 -19 -11 -48.5t-34 -68.5q-22 -40 -59 -94t-88 -123l-26 -34l-91 -125l-50 -12l2 58q0 98 -6.5 179.5t-18.5 145.5q-59 -122 -115 -215t-109 -156l-52 -12v0z" />
    <glyph glyph-name="x" unicode="x" horiz-adv-x="709" 
d="M67 0l43 89q9 -6 19 -8.5t22 -2.5q38 0 84.5 33t101.5 100l30 37l-67 156q-13 28 -25 43t-24 15q-15 0 -37 -20t-51 -59l12 65q36 46 66.5 69t55.5 23q24 0 46 -23.5t43 -70.5l56 -127l32 41q71 89 129.5 134.5t104.5 45.5q12 0 24.5 -4t25.5 -12l-50 -87q-10 5 -20 8
t-19 3q-40 0 -88 -33.5t-102 -100.5l-24 -27l73 -171q13 -32 25.5 -47t25.5 -15q17 0 41.5 18t55.5 55l-12 -58q-37 -41 -70 -61t-62 -20q-28 0 -50.5 19.5t-39.5 59.5l-63 150l-39 -50q-70 -91 -125.5 -135t-95.5 -44q-10 0 -23 3t-29 9v0z" />
    <glyph glyph-name="y" unicode="y" horiz-adv-x="693" 
d="M120 -311l67 69q24 -14 50 -21t54 -7q34 0 60 12t45 36t36 68t33 108l76 311h-7q-28 -59 -57.5 -106.5t-58.5 -85.5q-29 -37 -52.5 -55t-40.5 -18q-18 0 -31.5 9t-22.5 28t-16.5 54.5t-14.5 87.5l-23 191q-7 52 -18 78.5t-27 26.5q-15 0 -39.5 -21.5t-58.5 -64.5l10 51
q38 49 74.5 74.5t70.5 25.5q20 0 34 -8.5t22 -26.5q8 -17 16 -54t15 -94l20 -162q6 -44 15.5 -66t22.5 -22q15 0 36 21t49 63q5 8 32.5 53.5t76.5 128.5l37 157l104 6l-43 -153l-86 -347q-22 -87 -56.5 -154.5t-81.5 -113.5q-48 -47 -106 -70t-127 -23q-26 0 -48.5 3.5
t-40.5 10.5v0z" />
    <glyph glyph-name="z" unicode="z" horiz-adv-x="608" 
d="M69 -12l26 79l416 381q-11 -2 -19.5 -2h-13.5q-10 0 -29.5 1.5t-47.5 5.5l-61 7q-15 1 -27 2t-22 1q-17 0 -34.5 -3.5t-34.5 -11.5q-18 -7 -35.5 -18t-34.5 -25l9 43q50 43 95 65t85 22q11 0 23.5 -1t27.5 -3l42 -4q16 -3 30 -4t26 -1q34 0 64 4.5t56 13.5l-25 -80
l-395 -373q15 1 27 1.5t21 0.5q18 0 32.5 -0.5t24.5 -2.5l33 -4q8 -2 16 -3t17 -2q8 -1 16 -1h16q56 0 103 18t87 54l-9 -45q-52 -55 -101 -81.5t-94 -26.5q-11 0 -27.5 1.5t-39.5 3.5l-35 2q-16 1 -35 1.5t-41 0.5q-38 0 -71 -3.5t-61 -12.5v0z" />
    <glyph glyph-name="braceleft" unicode="{" horiz-adv-x="352" 
d="M472 843l-5 -30q-30 -3 -51 -12t-33 -24q-13 -16 -20 -43t-9 -66l-2 -65q-3 -58 -12.5 -101t-25.5 -72q-16 -28 -43.5 -50.5t-65.5 -38.5q36 -19 54.5 -47.5t18.5 -67.5q0 -19 -6 -45.5t-18 -61.5l-31 -91q-9 -26 -13.5 -43.5t-4.5 -27.5q0 -28 19 -46t58 -25l-7 -30
q-74 10 -111 39t-37 79q0 18 6 44t18 61l35 101q11 33 17 57t6 38q0 27 -19.5 41t-57.5 14l-25 1l6 30h22q37 -1 61 7.5t36 24.5q11 16 19 52t12 92l6 96q4 53 17.5 92t36.5 63t60.5 37.5t88.5 16.5v1z" />
    <glyph glyph-name="bar" unicode="|" horiz-adv-x="240" 
d="M58 -144l182 914h67l-182 -914h-67v0z" />
    <glyph glyph-name="braceright" unicode="}" horiz-adv-x="352" 
d="M18 -144l6 30q30 1 51 10t33 25t19 43t9 64l3 67q3 56 12.5 99t25.5 71q16 29 43.5 51.5t65.5 38.5q-37 18 -55 47t-18 68q0 18 5.5 44.5t17.5 62.5l31 93q9 25 13.5 43t4.5 28q0 27 -19 45t-57 26l6 31q74 -10 111 -39.5t37 -79.5q0 -19 -6 -45.5t-18 -61.5l-34 -99
q-12 -35 -17.5 -59.5t-5.5 -38.5q0 -27 19 -40.5t58 -13.5l24 1l-6 -30h-21q-37 -1 -61.5 -9t-35.5 -25q-12 -16 -20 -52t-11 -92l-7 -95q-3 -53 -16.5 -91.5t-36.5 -62.5t-60.5 -37.5t-89.5 -16.5v0z" />
    <glyph glyph-name="asciitilde" unicode="~" horiz-adv-x="632" 
d="M93 213q21 82 61.5 123.5t98.5 41.5q18 0 47.5 -11.5t69.5 -34.5l54 -30q34 -20 59.5 -30t42.5 -10q27 0 51 23.5t45 71.5l30 1q-24 -81 -64 -121t-96 -40q-23 0 -52 10t-64 30l-54 32q-37 21 -62.5 32t-39.5 11q-28 0 -52 -25t-44 -75l-31 1v0z" />
    <glyph glyph-name="exclamdown" unicode="&#xa1;" horiz-adv-x="252" 
d="M220 341l-43 -387l-29 -146l-100 -18l33 164l112 378l27 9v0zM296 468l-76 -59l-57 79l76 53l57 -73v0z" />
    <glyph glyph-name="cent" unicode="&#xa2;" horiz-adv-x="469" 
d="M248 -12l25 131q-88 5 -132.5 35.5t-44.5 84.5q0 35 17 66t51 56q34 26 76 40.5t93 18.5l24 121h31l-24 -120q34 -2 64 -6t56 -9l-17 -87h-30v4v7q1 7 1.5 11.5t0.5 7.5q0 19 -20 29.5t-61 12.5l-47 -237q36 -1 70.5 7.5t65.5 26.5l-7 -34q-36 -19 -70 -27.5t-66 -8.5
l-27 -130h-29v0zM281 157l47 235q-72 -11 -108 -44.5t-36 -89.5q0 -43 24 -68.5t73 -33.5v1z" />
    <glyph glyph-name="sterling" unicode="&#xa3;" horiz-adv-x="592" 
d="M11 0l62 60h10q36 -1 61.5 7.5t40.5 24.5q14 16 27 51t23 88l6 34h-108l6 30h108l9 42q10 48 30 85.5t50 64.5q31 27 68.5 40.5t82.5 13.5q27 0 56.5 -6t60.5 -17l-23 -121h-34l2 8v2.5t1 3.5v4v4q0 42 -22.5 63.5t-67.5 21.5q-22 0 -38 -6t-26 -18t-18.5 -36t-15.5 -60
l-18 -89h163l-7 -30h-162l-5 -22q-6 -32 -17 -58t-26 -45q-16 -19 -41.5 -39.5t-62.5 -41.5l139 1q47 -1 80.5 1.5t54.5 6.5q21 5 45 16t50 28l-8 -35q-25 -28 -49 -46t-47 -27q-23 -7 -56.5 -12t-76.5 -5l-19 1l-288 12v0z" />
    <glyph glyph-name="currency" unicode="&#xa4;" horiz-adv-x="632" 
d="M521 218l75 -93l-26 -21l-74 93q-40 -27 -78.5 -40t-76.5 -13q-37 0 -69.5 13t-61.5 39l-112 -92l-17 21l112 93q-15 25 -22 49.5t-7 49.5q0 48 21.5 94.5t64.5 90.5l-75 96l26 21l74 -94q20 12 39 22t39 17q19 6 38.5 9.5t38.5 3.5q37 0 70 -13.5t61 -39.5l112 95
l17 -21l-112 -95q14 -26 21.5 -51t7.5 -49q0 -48 -21.5 -94.5t-64.5 -91.5v1zM554 392q0 28 -9 52.5t-29 43.5q-19 19 -43 28t-53 9q-40 0 -75 -15t-66 -45t-46.5 -64.5t-15.5 -72.5q0 -29 9.5 -53t28.5 -43t43 -28.5t54 -9.5q39 0 74 15t66 46q32 30 47 64t15 72v1z" />
    <glyph glyph-name="yen" unicode="&#xa5;" horiz-adv-x="654" 
d="M105 0l62 67q8 -2 13 -2.5t8 -0.5q47 0 80.5 27t54.5 82l-139 1l5 30h142q2 14 3.5 32t2.5 40l-133 1l5 30h128v2.5t1 3.5v2v2q0 33 -6 60t-18 49t-27 33t-33 11t-39 -9.5t-46 -29.5q-24 -19 -43 -40.5t-33 -46.5l-22 17q23 39 50.5 71.5t60.5 57.5q33 26 64 38t60 12
q54 0 81.5 -47.5t27.5 -142.5l-1 -30q42 109 103.5 164.5t140.5 55.5q25 0 46.5 -5.5t40.5 -16.5l-57 -75q-16 9 -33.5 14t-34.5 5q-59 0 -104 -39t-75 -117l125 1l-6 -30h-125l-5 -27q-3 -13 -7 -24.5t-10 -22.5l132 1l-6 -30h-143q-22 -41 -55.5 -69.5t-77.5 -44.5l159 -8
l-61 -64l-256 12v0z" />
    <glyph glyph-name="brokenbar" unicode="&#xa6;" 
 />
    <glyph glyph-name="section" unicode="&#xa7;" horiz-adv-x="632" 
d="M72 -104l85 50q39 -33 81.5 -49.5t87.5 -16.5q28 0 52 8.5t43 25.5q20 16 29 37t9 47q0 16 -5.5 30t-16.5 25t-33.5 24.5t-55.5 29.5l-50 24q-66 29 -99 65.5t-33 79.5q0 41 28 81.5t83 82.5q-28 23 -41.5 50.5t-13.5 61.5q0 41 19 75t57 60t86.5 39t108.5 13
q29 0 64 -5.5t75 -16.5l-24 -121h-30q2 7 2.5 13.5t0.5 10.5q0 42 -35 63t-104 21q-31 0 -57 -9t-46 -27q-20 -17 -30 -40t-10 -51q0 -19 4 -32t13 -21q8 -8 33 -23t66 -38l42 -22q61 -34 91.5 -69t30.5 -73q0 -42 -26 -83t-77 -82q33 -22 50 -49t17 -60q0 -37 -19.5 -69.5
t-59.5 -58.5q-40 -27 -88.5 -40t-106.5 -13q-52 0 -101 13t-96 39v0zM452 154q27 30 40.5 58.5t13.5 53.5q0 26 -20 48.5t-60 41.5l-48 25q-22 10 -41 20.5t-36 20.5q-31 -27 -46 -55.5t-15 -58.5q0 -25 20.5 -47t60.5 -42l66 -30q12 -7 28 -15.5t37 -20.5v1z" />
    <glyph glyph-name="dieresis" unicode="&#xa8;" horiz-adv-x="584" 
d="M335 626l-59 74l77 58l58 -78l-76 -54v0zM569 626l-59 76l76 56l59 -77l-76 -55v0z" />
    <glyph glyph-name="copyright" unicode="&#xa9;" horiz-adv-x="843" 
d="M492 -18q-79 0 -145.5 27.5t-122.5 82.5q-56 56 -84 122.5t-28 145.5t28 146t84 122q56 56 122.5 83.5t145.5 27.5t146 -27.5t122 -83.5q56 -55 84 -122t28 -146t-28 -145.5t-84 -122.5q-55 -55 -122 -82.5t-146 -27.5v0zM492 12q72 -1 133.5 24.5t113.5 76.5
q51 52 76.5 113.5t25.5 133.5t-25.5 134t-76.5 113q-52 51 -113.5 76.5t-133.5 25.5t-134 -25.5t-113 -76.5t-76.5 -113t-25.5 -134t25.5 -133.5t76.5 -113.5q51 -51 113 -76.5t134 -25.5v1zM603 166q-36 -12 -67.5 -17.5t-58.5 -5.5q-42 0 -75.5 11.5t-57.5 33.5
q-24 23 -36.5 53.5t-12.5 69.5q0 56 18 102.5t54 83.5q35 37 80 55.5t98 18.5q31 0 64.5 -5t70.5 -16l-25 -92l-35 5l5 56q-23 10 -45 15.5t-43 5.5q-35 0 -65 -16.5t-55 -50.5q-24 -33 -36.5 -73.5t-12.5 -88.5q0 -64 30 -96.5t91 -32.5q35 0 65 6t57 19l-8 -41v0z" />
    <glyph glyph-name="ordfeminine" unicode="&#xaa;" horiz-adv-x="481" 
d="M580 488l-11 -49q-43 -46 -80 -68.5t-67 -22.5q-28 0 -42.5 15.5t-14.5 46.5q0 15 2.5 33.5t8.5 40.5l14 57h-20q-19 -42 -41 -77t-48 -62q-25 -27 -49 -40.5t-45 -13.5q-32 0 -48 24.5t-16 73.5q0 55 19.5 106t58.5 98q36 44 86 66.5t113 22.5q22 0 50.5 -1.5t62.5 -4.5
l-33 -133l-21 -100q-6 -32 -8.5 -50.5t-2.5 -24.5q0 -12 4.5 -18t14.5 -6q17 0 45.5 21.5t67.5 64.5v1zM402 634l10 47q-20 8 -39.5 12.5t-38.5 4.5q-28 0 -51.5 -15.5t-42.5 -47.5t-28.5 -71.5t-9.5 -87.5q0 -27 7 -40t21 -13q24 0 67 52.5t105 157.5v1z" />
    <glyph glyph-name="guillemotleft" unicode="&#xab;" horiz-adv-x="572" 
d="M251 48q-24 55 -59 109.5t-82 106.5q65 39 110.5 83.5t72.5 94.5l102 39q-18 -42 -64 -88t-121 -96q36 -44 67.5 -95t57.5 -110l-84 -44v0zM449 48q-28 64 -63 118.5t-77 97.5q67 46 112.5 91t70.5 90l101 36q-18 -41 -64 -86t-121 -95q36 -43 67.5 -94.5t57.5 -110.5
l-84 -47v0z" />
    <glyph glyph-name="logicalnot" unicode="&#xac;" horiz-adv-x="632" 
d="M120 346l10 54h531l-47 -232h-63l35 178h-466v0z" />
    <glyph glyph-name="sfthyphen" unicode="&#xad;" 
 />
    <glyph glyph-name="registered" unicode="&#xae;" horiz-adv-x="608" 
d="M393 301q-45 -1 -83 15t-70 47q-32 32 -48 70.5t-16 83.5q0 44 16 83t48 70q32 32 70 47.5t83 15.5t83.5 -15.5t70.5 -47.5q32 -31 47.5 -70t15.5 -83q0 -45 -16 -83.5t-48 -70.5q-31 -31 -69.5 -47t-83.5 -16v1zM393 328q39 -1 72.5 13t61.5 42t42 61.5t14 72.5
q0 38 -14 71.5t-42 61.5q-28 29 -61.5 43t-72.5 14t-72 -14t-61 -43q-28 -28 -42 -61.5t-14 -71.5q0 -39 14 -72.5t42 -61.5t61 -42t72 -14v1zM358 500l-19 -97h-72l6 30h36l37 187h-36l6 30h89q52 -1 78 -15t26 -43q0 -25 -17 -46.5t-52 -38.5l24 -74h42l-6 -30h-66l-34 97
h-42v0zM364 530h25q41 -1 62 13.5t21 42.5q0 17 -15.5 25t-45.5 8l-29 1l-18 -90v0z" />
    <glyph glyph-name="overstore" unicode="&#xaf;" 
 />
    <glyph glyph-name="glyph113" unicode="&#xb0;" 
 />
    <glyph glyph-name="plusminus" unicode="&#xb1;" horiz-adv-x="632" 
d="M51 0l11 54h530l-11 -54h-530v0zM317 144l38 190h-238l11 54h238l38 190h54l-38 -190h238l-11 -54h-237l-38 -190h-55v0z" />
    <glyph glyph-name="twosuperior" unicode="&#xb2;" 
 />
    <glyph glyph-name="threesuperior" unicode="&#xb3;" 
 />
    <glyph glyph-name="acute" unicode="&#xb4;" horiz-adv-x="584" 
d="M375 626l16 44q33 26 80.5 59t110.5 71l-32 -77q-61 -32 -105 -56t-70 -42v1z" />
    <glyph glyph-name="mu" unicode="&#xb5;" horiz-adv-x="672" 
d="M67 -204l37 153l79 390q3 19 5 37.5t2 36.5q0 28 -12.5 57t-38.5 59l110 7q20 -19 30 -47.5t10 -67.5q0 -16 -3.5 -40t-9.5 -56l-36 -181q-3 -14 -4 -22.5t-1 -13.5q0 -19 7.5 -28t22.5 -9q19 0 46.5 21t63.5 62q37 42 70.5 91t64.5 106l36 179l103 6l-36 -151l-48 -241
q-6 -29 -8.5 -47t-2.5 -27q0 -18 7 -26.5t22 -8.5q24 0 60.5 28t85.5 83l-9 -44q-54 -58 -102 -86t-90 -28q-35 0 -52.5 17.5t-17.5 54.5q0 12 2.5 33t8.5 50l24 122h-7q-68 -134 -137 -199.5t-138 -65.5l-39 -192l-105 -12v0z" />
    <glyph glyph-name="paragraph" unicode="&#xb6;" horiz-adv-x="632" 
d="M247 -162l99 498q-91 14 -137 56.5t-46 112.5q0 44 18 81.5t54 68.5q35 31 83 51t108 29l21 108h30l-21 -107h20q14 -1 30 -2t34 -3l21 112h30l-23 -117q18 -6 36.5 -12t37.5 -13l-6 -31q-13 4 -32 10t-42 13l-59 -296q17 5 39 14.5t47 22.5l-7 -37q-22 -14 -43.5 -23.5
t-42.5 -15.5l-104 -520h-31l102 510q-30 -7 -51.5 -10t-35.5 -3l-99 -497h-30v0zM471 385l62 314q-16 2 -30.5 3.5t-25.5 1.5h-5h-6q-4 -1 -7.5 -1h-8.5l-66 -328q20 -1 41.5 1.5t45.5 7.5v1z" />
    <glyph glyph-name="middot" unicode="&#xb7;" 
 />
    <glyph glyph-name="cedilla" unicode="&#xb8;" horiz-adv-x="584" 
d="M309 0l-29 -43q24 -8 36.5 -21.5t12.5 -34.5q0 -17 -9.5 -33.5t-29.5 -30.5q-19 -15 -40.5 -22t-44.5 -7q-10 0 -21.5 1.5t-23.5 3.5l37 51q12 -8 22 -11.5t19 -3.5q22 0 33 9t11 26q0 21 -17 31t-50 10l52 75h42v0z" />
    <glyph glyph-name="onesuperior" unicode="&#xb9;" 
 />
    <glyph glyph-name="ordmasculine" unicode="&#xba;" horiz-adv-x="481" 
d="M286 349q-28 -1 -51.5 7.5t-41.5 25.5q-17 17 -26 39t-9 50q0 51 19.5 97t57.5 88q39 41 82 62t90 21q30 0 53.5 -8.5t41.5 -25.5t27 -39.5t9 -50.5q0 -51 -19.5 -97.5t-58.5 -87.5t-82.5 -61.5t-91.5 -20.5v1zM320 385q24 -1 46 15.5t41 50.5q20 34 29.5 71.5t9.5 78.5
q0 51 -18 77t-53 26q-24 0 -45.5 -16.5t-41.5 -49.5q-19 -33 -28.5 -70t-9.5 -78q0 -53 17.5 -79.5t52.5 -26.5v1z" />
    <glyph glyph-name="guillemotright" unicode="&#xbb;" horiz-adv-x="572" 
d="M228 481q27 -67 62 -121t78 -96q-67 -47 -113 -92.5t-70 -89.5l-101 -34q17 40 63.5 85t121.5 94q-37 44 -68 95t-57 110l84 49v0zM426 481q24 -57 59 -111t81 -106q-64 -39 -110 -84t-73 -95l-101 -37q17 40 63 85.5t122 96.5q-37 44 -68 95t-57 110l84 46v0z" />
    <glyph glyph-name="onequarter" unicode="&#xbc;" 
 />
    <glyph glyph-name="onehalf" unicode="&#xbd;" 
 />
    <glyph glyph-name="threequarters" unicode="&#xbe;" 
 />
    <glyph glyph-name="questiondown" unicode="&#xbf;" 
d="M398 340q-4 -42 -32.5 -85t-81.5 -88l-20 -16q-58 -50 -87 -103t-29 -110q0 -26 7.5 -47.5t21.5 -37.5q15 -17 34 -25t43 -8q56 0 91 30t50 90h30l-23 -115q-51 -17 -95.5 -26t-83.5 -9q-40 0 -73 9t-58 27t-37 42t-12 54q0 40 25.5 81t76.5 84l51 44q41 34 66.5 76
t35.5 90l3 15l97 28v0zM444 471l-77 -62l-59 81l77 51l59 -70v0z" />
    <glyph glyph-name="Agrave" unicode="&#xc0;" horiz-adv-x="974" 
d="M44 41l66 66q23 -37 53.5 -54.5t67.5 -17.5q36 0 70 15t65 44q32 30 70 83.5t82 129.5l210 364q-27 2 -49.5 3.5t-41.5 1.5q-51 0 -90.5 -12.5t-67.5 -38.5q-28 -25 -41.5 -61.5t-13.5 -84.5l-96 -46q5 45 17.5 83t33.5 68q23 34 51 57.5t59 37.5q32 14 77.5 23.5
t104.5 13.5q12 0 30 1.5t43 3.5l99 19l7 -162l28 -338q5 -59 12 -98t16 -58q8 -19 24.5 -28t39.5 -9q4 0 18 1t39 2l-7 -31l-224 -37l-20 240h-266q-38 -68 -74.5 -114.5t-71.5 -73.5q-34 -26 -75 -39t-89 -13q-45 0 -84 14t-72 44v1zM531 258h242l-31 367l-211 -367v0z
M853 821l-62 -38q-18 34 -43 66.5t-58 62.5l58 46q30 -32 56.5 -66t48.5 -72v1z" />
    <glyph glyph-name="Aacute" unicode="&#xc1;" horiz-adv-x="974" 
d="M44 41l66 66q23 -37 53.5 -54.5t67.5 -17.5q36 0 70 15t65 44q32 30 70 83.5t82 129.5l210 364q-27 2 -49.5 3.5t-41.5 1.5q-51 0 -90.5 -12.5t-67.5 -38.5q-28 -25 -41.5 -61.5t-13.5 -84.5l-96 -46q5 45 17.5 83t33.5 68q23 34 51 57.5t59 37.5q32 14 77.5 23.5
t104.5 13.5q12 0 30 1.5t43 3.5l99 19l7 -162l28 -338q5 -59 12 -98t16 -58q8 -19 24.5 -28t39.5 -9q4 0 18 1t39 2l-7 -31l-224 -37l-20 240h-266q-38 -68 -74.5 -114.5t-71.5 -73.5q-34 -26 -75 -39t-89 -13q-45 0 -84 14t-72 44v1zM531 258h242l-31 367l-211 -367v0z
M734 783l16 44q32 26 79.5 59t110.5 71l-31 -78q-61 -32 -105 -56t-70 -41v1z" />
    <glyph glyph-name="Acircumflex" unicode="&#xc2;" horiz-adv-x="974" 
d="M44 41l66 66q23 -37 53.5 -54.5t67.5 -17.5q36 0 70 15t65 44q32 30 70 83.5t82 129.5l210 364q-27 2 -49.5 3.5t-41.5 1.5q-51 0 -90.5 -12.5t-67.5 -38.5q-28 -25 -41.5 -61.5t-13.5 -84.5l-96 -46q5 45 17.5 83t33.5 68q23 34 51 57.5t59 37.5q32 14 77.5 23.5
t104.5 13.5q12 0 30 1.5t43 3.5l99 19l7 -162l28 -338q5 -59 12 -98t16 -58q8 -19 24.5 -28t39.5 -9q4 0 18 1t39 2l-7 -31l-224 -37l-20 240h-266q-38 -68 -74.5 -114.5t-71.5 -73.5q-34 -26 -75 -39t-89 -13q-45 0 -84 14t-72 44v1zM531 258h242l-31 367l-211 -367v0z
M907 818l-59 -35q-19 19 -34 45.5t-27 60.5q-14 -17 -34.5 -39t-46.5 -48q-1 -1 -4.5 -5t-9.5 -10l-69 -4q53 37 90.5 70.5t60.5 61.5l66 43q11 -40 28 -74.5t39 -66.5v1z" />
    <glyph glyph-name="Atilde" unicode="&#xc3;" horiz-adv-x="974" 
d="M44 41l66 66q23 -37 53.5 -54.5t67.5 -17.5q36 0 70 15t65 44q32 30 70 83.5t82 129.5l210 364q-27 2 -49.5 3.5t-41.5 1.5q-51 0 -90.5 -12.5t-67.5 -38.5q-28 -25 -41.5 -61.5t-13.5 -84.5l-96 -46q5 45 17.5 83t33.5 68q23 34 51 57.5t59 37.5q32 14 77.5 23.5
t104.5 13.5q12 0 30 1.5t43 3.5l99 19l7 -162l28 -338q5 -59 12 -98t16 -58q8 -19 24.5 -28t39.5 -9q4 0 18 1t39 2l-7 -31l-224 -37l-20 240h-266q-38 -68 -74.5 -114.5t-71.5 -73.5q-34 -26 -75 -39t-89 -13q-45 0 -84 14t-72 44v1zM531 258h242l-31 367l-211 -367v0z
M643 790l-34 -7q4 25 13.5 45t24.5 36t32.5 24t37.5 8q12 0 28 -5.5t35 -16.5l16 -8q18 -11 32 -16t24 -5q14 0 26 12t23 36l33 10q-9 -61 -35.5 -91t-70.5 -30q-16 0 -32.5 4.5t-33.5 14.5l-22 13q-16 8 -29 12.5t-22 4.5q-14 0 -25.5 -10.5t-20.5 -31.5v1z" />
    <glyph glyph-name="Adieresis" unicode="&#xc4;" horiz-adv-x="974" 
d="M44 41l66 66q23 -37 53.5 -54.5t67.5 -17.5q36 0 70 15t65 44q32 30 70 83.5t82 129.5l210 364q-27 2 -49.5 3.5t-41.5 1.5q-51 0 -90.5 -12.5t-67.5 -38.5q-28 -25 -41.5 -61.5t-13.5 -84.5l-96 -46q5 45 17.5 83t33.5 68q23 34 51 57.5t59 37.5q32 14 77.5 23.5
t104.5 13.5q12 0 30 1.5t43 3.5l99 19l7 -162l28 -338q5 -59 12 -98t16 -58q8 -19 24.5 -28t39.5 -9q4 0 18 1t39 2l-7 -31l-224 -37l-20 240h-266q-38 -68 -74.5 -114.5t-71.5 -73.5q-34 -26 -75 -39t-89 -13q-45 0 -84 14t-72 44v1zM531 258h242l-31 367l-211 -367v0z
M646 783l-59 74l77 58l58 -79l-76 -53v0zM880 783l-59 75l76 57l59 -78l-76 -54v0z" />
    <glyph glyph-name="Aring" unicode="&#xc5;" horiz-adv-x="974" 
d="M44 41l66 66q23 -37 53.5 -54.5t67.5 -17.5q36 0 70 15t65 44q32 30 70 83.5t82 129.5l210 364q-27 2 -49.5 3.5t-41.5 1.5q-51 0 -90.5 -12.5t-67.5 -38.5q-28 -25 -41.5 -61.5t-13.5 -84.5l-96 -46q5 45 17.5 83t33.5 68q23 34 51 57.5t59 37.5q32 14 77.5 23.5
t104.5 13.5q12 0 30 1.5t43 3.5l13 5q-21 10 -31 26.5t-10 38.5q0 15 5.5 28.5t16.5 24.5t24 16.5t29 5.5t29 -5.5t24 -16.5q11 -10 16.5 -23.5t5.5 -29.5q0 -14 -5 -27.5t-15 -26.5l4 -159l28 -338q5 -59 12 -98t16 -58q8 -19 24.5 -28t39.5 -9q4 0 18 1t39 2l-7 -31
l-224 -37l-20 240h-266q-38 -68 -74.5 -114.5t-71.5 -73.5q-34 -26 -75 -39t-89 -13q-45 0 -84 14t-72 44v1zM531 258h242l-31 367l-211 -367v0zM749 791q0 -22 10.5 -32t31.5 -10t31.5 10t10.5 31t-10.5 32t-31.5 11t-31.5 -11t-10.5 -32v1z" />
    <glyph glyph-name="AE" unicode="&#xc6;" horiz-adv-x="1154" 
d="M41 41l66 67q24 -37 54.5 -55t67.5 -18q14 0 27.5 2.5t27.5 8.5q13 5 27 13t27 18q27 21 61 58t75 90l338 438q-42 7 -83 11.5t-81 4.5q-46 0 -83.5 -13.5t-65.5 -40.5t-42.5 -63t-14.5 -81l-93 -47q8 100 57.5 165.5t141.5 93.5q47 14 134.5 21t214.5 7l336 1l-43 -138
h-31q2 9 3.5 17.5t1.5 15.5q0 20 -11 33t-34 20q-22 8 -62 11.5t-99 3.5l-15 1l-56 -289h217l-49 -50q-56 6 -93.5 9.5t-57.5 3.5l-25 1l-43 -213q-2 -14 -3 -25t-1 -19q0 -14 8.5 -24.5t26.5 -15.5q18 -6 49 -9t77 -3q37 0 73.5 13.5t72.5 41.5l-8 -38q-42 -43 -80 -63.5
t-71 -20.5h-6.5h-6.5q-4 1 -8 1h-9l-245 14l45 226h-230l-68 -89q-34 -44 -64.5 -74.5t-58.5 -47.5q-27 -16 -59 -24.5t-69 -8.5q-46 0 -86.5 14t-73.5 44v1zM547 255h209l74 371l-283 -371v0z" />
    <glyph glyph-name="Ccedilla" unicode="&#xc7;" horiz-adv-x="683" 
d="M650 44q-64 -26 -123 -41t-114 -20l-18 -27q24 -6 36.5 -20t12.5 -35q0 -17 -9.5 -33.5t-28.5 -30.5q-19 -15 -40.5 -22t-44.5 -7q-13 0 -24 0.5t-22 2.5l37 52q11 -8 21.5 -11.5t20.5 -3.5q21 0 31.5 9t10.5 26q0 19 -16.5 29t-49.5 12l39 57q-67 6 -115 24t-79 49
q-31 32 -46.5 78.5t-15.5 108.5q0 105 33 193.5t98 160.5q66 73 147 109t177 36q56 0 108.5 -7.5t100.5 -21.5l-41 -133h-31q2 10 3.5 19.5t1.5 16.5q0 22 -11.5 39t-34.5 30q-23 14 -53.5 20t-67.5 6q-56 0 -105 -24.5t-91 -74.5q-28 -33 -50.5 -74t-40.5 -90
q-17 -49 -26 -95t-9 -90q0 -52 14 -93.5t42 -72.5q28 -30 65.5 -45t86.5 -15q54 0 111.5 13.5t118.5 40.5l-9 -45v0z" />
    <glyph glyph-name="Egrave" unicode="&#xc8;" horiz-adv-x="735" 
d="M102 0l72 72h9q37 -1 62.5 6.5t39.5 23.5q14 15 26 49t22 86l89 447q-50 -1 -90.5 -14.5t-71.5 -40.5t-46.5 -62t-15.5 -79v-9l-95 -46q6 73 35 127.5t81 89.5q53 36 129.5 53.5t178.5 17.5l287 1l-43 -138h-31q2 8 3 17t1 16q0 20 -11 33t-33 20q-22 8 -62 11.5t-99 3.5
l-15 1l-57 -289h218l-50 -50q-55 6 -93 9.5t-58 3.5l-24 1l-10 -53q-9 -45 -22 -80.5t-30 -61.5q-9 -13 -20.5 -26t-25.5 -25q-14 -13 -30.5 -26t-35.5 -26l234 -8l51 -2q40 -1 77.5 12.5t71.5 41.5l-8 -38q-43 -44 -83.5 -65.5t-78.5 -21.5l-23 1l-425 17v0zM691 821
l-61 -38q-18 34 -43.5 66.5t-58.5 62.5l58 46q30 -32 56.5 -66t48.5 -72v1z" />
    <glyph glyph-name="Eacute" unicode="&#xc9;" horiz-adv-x="735" 
d="M102 0l72 72h9q37 -1 62.5 6.5t39.5 23.5q14 15 26 49t22 86l89 447q-50 -1 -90.5 -14.5t-71.5 -40.5t-46.5 -62t-15.5 -79v-9l-95 -46q6 73 35 127.5t81 89.5q53 36 129.5 53.5t178.5 17.5l287 1l-43 -138h-31q2 8 3 17t1 16q0 20 -11 33t-33 20q-22 8 -62 11.5t-99 3.5
l-15 1l-57 -289h218l-50 -50q-55 6 -93 9.5t-58 3.5l-24 1l-10 -53q-9 -45 -22 -80.5t-30 -61.5q-9 -13 -20.5 -26t-25.5 -25q-14 -13 -30.5 -26t-35.5 -26l234 -8l51 -2q40 -1 77.5 12.5t71.5 41.5l-8 -38q-43 -44 -83.5 -65.5t-78.5 -21.5l-23 1l-425 17v0zM555 783l15 44
q33 26 80.5 59t110.5 71l-32 -78q-61 -32 -104.5 -56t-69.5 -41v1z" />
    <glyph glyph-name="Ecircumflex" unicode="&#xca;" horiz-adv-x="735" 
d="M102 0l72 72h9q37 -1 62.5 6.5t39.5 23.5q14 15 26 49t22 86l89 447q-50 -1 -90.5 -14.5t-71.5 -40.5t-46.5 -62t-15.5 -79v-9l-95 -46q6 73 35 127.5t81 89.5q53 36 129.5 53.5t178.5 17.5l287 1l-43 -138h-31q2 8 3 17t1 16q0 20 -11 33t-33 20q-22 8 -62 11.5t-99 3.5
l-15 1l-57 -289h218l-50 -50q-55 6 -93 9.5t-58 3.5l-24 1l-10 -53q-9 -45 -22 -80.5t-30 -61.5q-9 -13 -20.5 -26t-25.5 -25q-14 -13 -30.5 -26t-35.5 -26l234 -8l51 -2q40 -1 77.5 12.5t71.5 41.5l-8 -38q-43 -44 -83.5 -65.5t-78.5 -21.5l-23 1l-425 17v0zM752 818
l-60 -35q-18 19 -33.5 45.5t-27.5 60.5q-13 -17 -33.5 -39t-46.5 -48l-5 -5t-9 -10l-69 -4q53 37 90.5 70.5t60.5 61.5l66 43q11 -40 28 -74.5t39 -66.5v1z" />
    <glyph glyph-name="Edieresis" unicode="&#xcb;" horiz-adv-x="735" 
d="M102 0l72 72h9q37 -1 62.5 6.5t39.5 23.5q14 15 26 49t22 86l89 447q-50 -1 -90.5 -14.5t-71.5 -40.5t-46.5 -62t-15.5 -79v-9l-95 -46q6 73 35 127.5t81 89.5q53 36 129.5 53.5t178.5 17.5l287 1l-43 -138h-31q2 8 3 17t1 16q0 20 -11 33t-33 20q-22 8 -62 11.5t-99 3.5
l-15 1l-57 -289h218l-50 -50q-55 6 -93 9.5t-58 3.5l-24 1l-10 -53q-9 -45 -22 -80.5t-30 -61.5q-9 -13 -20.5 -26t-25.5 -25q-14 -13 -30.5 -26t-35.5 -26l234 -8l51 -2q40 -1 77.5 12.5t71.5 41.5l-8 -38q-43 -44 -83.5 -65.5t-78.5 -21.5l-23 1l-425 17v0zM485 783
l-60 74l77 58l58 -79l-75 -53v0zM719 783l-60 75l77 57l58 -78l-75 -54v0z" />
    <glyph glyph-name="Igrave" unicode="&#xcc;" horiz-adv-x="451" 
d="M5 0l74 72h32q28 -1 49 8t34 27t25 54t22 89l80 400h-133l71 72h318l-74 -72h-80l-69 -346q-16 -80 -57 -140t-107 -101l190 -3l-70 -72l-305 12v0zM512 821l-61 -38q-18 34 -43.5 66.5t-58.5 62.5l58 46q30 -32 56.5 -66t48.5 -72v1z" />
    <glyph glyph-name="Iacute" unicode="&#xcd;" horiz-adv-x="451" 
d="M5 0l74 72h32q28 -1 49 8t34 27t25 54t22 89l80 400h-133l71 72h318l-74 -72h-80l-69 -346q-16 -80 -57 -140t-107 -101l190 -3l-70 -72l-305 12v0zM346 783l15 44q33 26 80.5 59t110.5 71l-32 -78q-61 -32 -104.5 -56t-69.5 -41v1z" />
    <glyph glyph-name="Icircumflex" unicode="&#xce;" horiz-adv-x="451" 
d="M5 0l74 72h32q28 -1 49 8t34 27t25 54t22 89l80 400h-133l71 72h318l-74 -72h-80l-69 -346q-16 -80 -57 -140t-107 -101l190 -3l-70 -72l-305 12v0zM549 818l-60 -35q-18 19 -33.5 45.5t-27.5 60.5q-13 -17 -33.5 -39t-46.5 -48l-5 -5t-9 -10l-69 -4q53 37 90.5 70.5
t60.5 61.5l66 43q11 -40 28 -74.5t39 -66.5v1z" />
    <glyph glyph-name="Idieresis" unicode="&#xcf;" horiz-adv-x="451" 
d="M5 0l74 72h32q28 -1 49 8t34 27t25 54t22 89l80 400h-133l71 72h318l-74 -72h-80l-69 -346q-16 -80 -57 -140t-107 -101l190 -3l-70 -72l-305 12v0zM288 783l-59 74l76 58l58 -79l-75 -53v0zM522 783l-60 75l77 57l58 -78l-75 -54v0z" />
    <glyph glyph-name="Eth" unicode="&#xd0;" 
 />
    <glyph glyph-name="Ntilde" unicode="&#xd1;" horiz-adv-x="1029" 
d="M39 45l69 72q25 -41 59.5 -61.5t77.5 -20.5q29 0 55 12t48 36q22 25 37 57.5t23 72.5l92 464q-12 1 -21 2t-14 1q-40 0 -73.5 -14t-59.5 -43q-27 -28 -40.5 -64t-13.5 -79l-95 -45q5 64 31.5 115.5t74.5 91.5t109 59.5t135 19.5l47 1q25 -65 58 -134t74 -142l62 -109
q32 -58 56 -104t39 -81l56 283q14 72 39.5 128.5t61.5 96.5t79 60t94 20q9 0 18 -1t18 -3q8 -1 17 -4l18 -6l-35 -65q-22 16 -43 24.5t-41 8.5q-52 0 -87.5 -45.5t-53.5 -137.5l-73 -367l-23 -144l-63 -21q-9 26 -34.5 77t-67.5 127l-120 213q-24 41 -44 79t-35 72l-37 -187
q-18 -90 -48 -158.5t-71 -116.5q-42 -48 -92.5 -71t-110.5 -23q-42 0 -80 13t-72 40v1zM702 790l-34 -7q4 25 13.5 45t24.5 36t32.5 24t37.5 8q12 0 28 -5.5t35 -16.5l16 -8q18 -11 32 -16t24 -5q14 0 26 12t23 36l33 10q-9 -61 -35.5 -91t-70.5 -30q-16 0 -32.5 4.5
t-33.5 14.5l-22 13q-16 8 -28.5 12.5t-21.5 4.5q-15 0 -26.5 -10.5t-20.5 -31.5v1z" />
    <glyph glyph-name="Ograve" unicode="&#xd2;" horiz-adv-x="783" 
d="M373 -18q-60 0 -107.5 18t-82.5 55q-35 38 -52.5 88.5t-17.5 114.5q0 96 33 180t99 157q66 72 142.5 108.5t164.5 36.5q59 0 106.5 -18.5t81.5 -55.5q35 -37 52.5 -86.5t17.5 -112.5q0 -100 -32 -186t-97 -157q-64 -72 -141 -107t-167 -35v0zM392 15q64 -1 118 32.5
t100 100.5q45 67 68 147.5t23 174.5q0 119 -41.5 178.5t-124.5 59.5q-63 0 -117.5 -33t-100.5 -99q-46 -67 -68.5 -146.5t-22.5 -172.5q0 -121 41.5 -182t124.5 -61v1zM666 821l-62 -38q-18 34 -43 66.5t-58 62.5l58 46q30 -32 56.5 -66t48.5 -72v1z" />
    <glyph glyph-name="Oacute" unicode="&#xd3;" horiz-adv-x="783" 
d="M373 -18q-60 0 -107.5 18t-82.5 55q-35 38 -52.5 88.5t-17.5 114.5q0 96 33 180t99 157q66 72 142.5 108.5t164.5 36.5q59 0 106.5 -18.5t81.5 -55.5q35 -37 52.5 -86.5t17.5 -112.5q0 -100 -32 -186t-97 -157q-64 -72 -141 -107t-167 -35v0zM392 15q64 -1 118 32.5
t100 100.5q45 67 68 147.5t23 174.5q0 119 -41.5 178.5t-124.5 59.5q-63 0 -117.5 -33t-100.5 -99q-46 -67 -68.5 -146.5t-22.5 -172.5q0 -121 41.5 -182t124.5 -61v1zM493 783l16 44q32 26 79.5 59t110.5 71l-32 -78q-61 -32 -104.5 -56t-69.5 -41v1z" />
    <glyph glyph-name="Ocircumflex" unicode="&#xd4;" horiz-adv-x="783" 
d="M373 -18q-60 0 -107.5 18t-82.5 55q-35 38 -52.5 88.5t-17.5 114.5q0 96 33 180t99 157q66 72 142.5 108.5t164.5 36.5q59 0 106.5 -18.5t81.5 -55.5q35 -37 52.5 -86.5t17.5 -112.5q0 -100 -32 -186t-97 -157q-64 -72 -141 -107t-167 -35v0zM392 15q64 -1 118 32.5
t100 100.5q45 67 68 147.5t23 174.5q0 119 -41.5 178.5t-124.5 59.5q-63 0 -117.5 -33t-100.5 -99q-46 -67 -68.5 -146.5t-22.5 -172.5q0 -121 41.5 -182t124.5 -61v1zM696 818l-59 -35q-19 19 -34 45.5t-27 60.5q-14 -17 -34.5 -39t-46.5 -48q-1 -1 -4.5 -5t-9.5 -10
l-69 -4q53 37 90.5 70.5t60.5 61.5l66 43q11 -40 28 -74.5t39 -66.5v1z" />
    <glyph glyph-name="Otilde" unicode="&#xd5;" horiz-adv-x="783" 
d="M373 -18q-60 0 -107.5 18t-82.5 55q-35 38 -52.5 88.5t-17.5 114.5q0 96 33 180t99 157q66 72 142.5 108.5t164.5 36.5q59 0 106.5 -18.5t81.5 -55.5q35 -37 52.5 -86.5t17.5 -112.5q0 -100 -32 -186t-97 -157q-64 -72 -141 -107t-167 -35v0zM392 15q64 -1 118 32.5
t100 100.5q45 67 68 147.5t23 174.5q0 119 -41.5 178.5t-124.5 59.5q-63 0 -117.5 -33t-100.5 -99q-46 -67 -68.5 -146.5t-22.5 -172.5q0 -121 41.5 -182t124.5 -61v1zM457 790l-35 -7q5 25 14 45t24 36t33 24t38 8q11 0 27 -5.5t35 -16.5l17 -8q18 -11 31.5 -16t23.5 -5
q14 0 26.5 12t23.5 36l32 10q-9 -61 -35 -91t-70 -30q-16 0 -32.5 4.5t-33.5 14.5l-23 13q-16 8 -28.5 12.5t-21.5 4.5q-15 0 -26.5 -10.5t-19.5 -31.5v1z" />
    <glyph glyph-name="Odieresis" unicode="&#xd6;" horiz-adv-x="783" 
d="M373 -18q-60 0 -107.5 18t-82.5 55q-35 38 -52.5 88.5t-17.5 114.5q0 96 33 180t99 157q66 72 142.5 108.5t164.5 36.5q59 0 106.5 -18.5t81.5 -55.5q35 -37 52.5 -86.5t17.5 -112.5q0 -100 -32 -186t-97 -157q-64 -72 -141 -107t-167 -35v0zM392 15q64 -1 118 32.5
t100 100.5q45 67 68 147.5t23 174.5q0 119 -41.5 178.5t-124.5 59.5q-63 0 -117.5 -33t-100.5 -99q-46 -67 -68.5 -146.5t-22.5 -172.5q0 -121 41.5 -182t124.5 -61v1zM454 783l-60 74l77 58l58 -79l-75 -53v0zM687 783l-59 75l77 57l58 -78l-76 -54v0z" />
    <glyph glyph-name="multiply" unicode="&#xd7;" 
 />
    <glyph glyph-name="Oslash" unicode="&#xd8;" horiz-adv-x="783" 
d="M164 -72l60 93q-55 38 -82.5 97.5t-27.5 139.5q0 97 33 181t99 156q67 73 144.5 109t165.5 36q32 0 60.5 -6.5t53.5 -19.5l50 81h45l-62 -98q54 -39 81 -95.5t27 -130.5q0 -100 -31.5 -186t-95.5 -159q-63 -73 -138 -108.5t-161 -35.5q-38 0 -70 6t-58 17l-50 -77h-43v0z
M664 635l-377 -582q26 -20 50.5 -29.5t49.5 -9.5q67 0 122.5 33t101.5 100q46 68 68.5 150t22.5 179q0 47 -9.5 86t-28.5 72v1zM262 82l376 584q-25 21 -55.5 32t-65.5 11q-31 0 -61.5 -12.5t-62.5 -38.5q-31 -25 -57.5 -59.5t-48.5 -77.5q-31 -61 -46 -133.5t-15 -157.5
q0 -43 9 -80t27 -69v1z" />
    <glyph glyph-name="Ugrave" unicode="&#xd9;" horiz-adv-x="976" 
d="M710 -18l30 150q-54 -76 -112 -113t-120 -37q-43 0 -77 14.5t-60 44.5t-39 70.5t-13 90.5q0 32 7.5 83.5t22.5 122.5t32 138t36 130q-12 2 -20.5 3t-13.5 1q-40 0 -74 -14t-60 -43q-27 -28 -40.5 -64t-13.5 -79l-95 -45q11 142 110.5 214t286.5 72l35 1
q-22 -71 -41 -143.5t-35 -149.5q-16 -76 -24 -132t-8 -93q0 -40 7.5 -70.5t23.5 -53.5q16 -22 37.5 -33t49.5 -11q30 0 59.5 12.5t57.5 37.5q29 26 54 61t46 81l98 494l111 12l-37 -156l-70 -350q-10 -49 -14.5 -80t-4.5 -45q0 -27 16 -40t49 -13q11 0 26 1t33 4l-7 -31
l-249 -42v0zM769 821l-62 -38q-18 34 -43.5 66.5t-58.5 62.5l59 46q30 -32 56.5 -66t48.5 -72v1z" />
    <glyph glyph-name="Uacute" unicode="&#xda;" horiz-adv-x="976" 
d="M710 -18l30 150q-54 -76 -112 -113t-120 -37q-43 0 -77 14.5t-60 44.5t-39 70.5t-13 90.5q0 32 7.5 83.5t22.5 122.5t32 138t36 130q-12 2 -20.5 3t-13.5 1q-40 0 -74 -14t-60 -43q-27 -28 -40.5 -64t-13.5 -79l-95 -45q11 142 110.5 214t286.5 72l35 1
q-22 -71 -41 -143.5t-35 -149.5q-16 -76 -24 -132t-8 -93q0 -40 7.5 -70.5t23.5 -53.5q16 -22 37.5 -33t49.5 -11q30 0 59.5 12.5t57.5 37.5q29 26 54 61t46 81l98 494l111 12l-37 -156l-70 -350q-10 -49 -14.5 -80t-4.5 -45q0 -27 16 -40t49 -13q11 0 26 1t33 4l-7 -31
l-249 -42v0zM625 783l16 44q33 26 80.5 59t110.5 71l-32 -78q-61 -32 -105 -56t-70 -41v1z" />
    <glyph glyph-name="Ucircumflex" unicode="&#xdb;" horiz-adv-x="976" 
d="M710 -18l30 150q-54 -76 -112 -113t-120 -37q-43 0 -77 14.5t-60 44.5t-39 70.5t-13 90.5q0 32 7.5 83.5t22.5 122.5t32 138t36 130q-12 2 -20.5 3t-13.5 1q-40 0 -74 -14t-60 -43q-27 -28 -40.5 -64t-13.5 -79l-95 -45q11 142 110.5 214t286.5 72l35 1
q-22 -71 -41 -143.5t-35 -149.5q-16 -76 -24 -132t-8 -93q0 -40 7.5 -70.5t23.5 -53.5q16 -22 37.5 -33t49.5 -11q30 0 59.5 12.5t57.5 37.5q29 26 54 61t46 81l98 494l111 12l-37 -156l-70 -350q-10 -49 -14.5 -80t-4.5 -45q0 -27 16 -40t49 -13q11 0 26 1t33 4l-7 -31
l-249 -42v0zM841 818l-60 -35q-18 19 -33.5 45.5t-27.5 60.5q-13 -17 -33.5 -39t-46.5 -48l-5 -5t-9 -10l-69 -4q53 37 90.5 70.5t60.5 61.5l66 43q11 -40 28 -74.5t39 -66.5v1z" />
    <glyph glyph-name="Udieresis" unicode="&#xdc;" horiz-adv-x="976" 
d="M710 -18l30 150q-54 -76 -112 -113t-120 -37q-43 0 -77 14.5t-60 44.5t-39 70.5t-13 90.5q0 32 7.5 83.5t22.5 122.5t32 138t36 130q-12 2 -20.5 3t-13.5 1q-40 0 -74 -14t-60 -43q-27 -28 -40.5 -64t-13.5 -79l-95 -45q11 142 110.5 214t286.5 72l35 1
q-22 -71 -41 -143.5t-35 -149.5q-16 -76 -24 -132t-8 -93q0 -40 7.5 -70.5t23.5 -53.5q16 -22 37.5 -33t49.5 -11q30 0 59.5 12.5t57.5 37.5q29 26 54 61t46 81l98 494l111 12l-37 -156l-70 -350q-10 -49 -14.5 -80t-4.5 -45q0 -27 16 -40t49 -13q11 0 26 1t33 4l-7 -31
l-249 -42v0zM574 783l-59 74l76 58l58 -79l-75 -53v0zM808 783l-59 75l76 57l58 -78l-75 -54v0z" />
    <glyph glyph-name="Yacute" unicode="&#xdd;" horiz-adv-x="818" 
d="M196 -160l67 64q29 -35 63.5 -52t74.5 -17q62 0 107.5 59.5t75.5 177.5l41 166q-65 -107 -118.5 -159.5t-95.5 -52.5q-33 0 -52.5 35.5t-25.5 107.5l-28 365q-6 72 -22 108.5t-42 36.5q-19 0 -44.5 -14.5t-57.5 -43.5l7 41q40 38 74 57.5t62 19.5q29 0 51.5 -14.5
t37.5 -44.5q15 -29 25.5 -78.5t15.5 -118.5l20 -267q3 -49 13 -73t26 -24q12 0 31 14t44 42q26 29 50.5 62.5t48.5 72.5l103 412l113 9l-45 -153l-95 -384q-49 -199 -141 -298.5t-226 -99.5q-42 0 -81 11t-77 33v0zM537 783l15 44q33 26 80.5 59t110.5 71l-32 -78
q-61 -32 -104.5 -56t-69.5 -41v1z" />
    <glyph glyph-name="Thorn" unicode="&#xde;" 
 />
    <glyph glyph-name="germandbls" unicode="&#xdf;" horiz-adv-x="603" 
d="M-236 -312l70 68q26 -11 49.5 -16t45.5 -5q36 0 62 11t43 32q17 22 31.5 62.5t26.5 100.5l109 546q19 94 49.5 162.5t72.5 110.5q47 47 93.5 70.5t94.5 23.5q21 0 38.5 -6.5t31.5 -20.5t21.5 -31t7.5 -37q0 -34 -24.5 -73t-73.5 -83l-26 -21q-28 -27 -42 -52t-14 -48
q0 -20 15 -48t46 -64l55 -65q31 -38 46.5 -71.5t15.5 -64.5q0 -38 -18 -70.5t-54 -58.5q-37 -27 -81 -39.5t-96 -12.5q-25 0 -47 5.5t-42 15.5l59 69q24 -22 52 -32.5t59 -10.5q20 0 37.5 7t32.5 20q15 14 22.5 30t7.5 34q0 24 -16.5 53.5t-48.5 64.5l-37 42
q-49 52 -74 93.5t-25 70.5t17 56t51 52l38 28l14 12q29 22 43 52.5t14 67.5q0 38 -17.5 57t-52.5 19q-43 0 -74 -45t-49 -135l-108 -541q-21 -105 -55.5 -180t-81.5 -121q-50 -48 -107 -72.5t-121 -24.5q-20 0 -41 3.5t-44 9.5h-1z" />
    <glyph glyph-name="agrave" unicode="&#xe0;" horiz-adv-x="668" 
d="M480 265h-9q-28 -62 -61 -112.5t-72 -88.5q-38 -39 -74.5 -57.5t-70.5 -18.5q-52 0 -77.5 31.5t-25.5 95.5q0 71 28 140.5t85 138.5q59 71 130 106t156 35q35 0 71.5 -1.5t74.5 -4.5l-35 -144l-47 -241q-6 -29 -9 -47.5t-3 -26.5q0 -16 7 -23.5t22 -7.5q24 0 60.5 26.5
t85.5 80.5l-9 -44q-54 -58 -102 -86t-90 -28q-36 0 -53.5 17.5t-17.5 54.5q0 12 3 32.5t9 50.5l24 122v0zM519 460q-31 13 -61.5 19.5t-60.5 6.5q-44 0 -79.5 -28t-62.5 -84q-31 -67 -46.5 -126.5t-15.5 -112.5q0 -38 11.5 -57t33.5 -19q21 0 51 22t70 66q39 44 73.5 94.5
t64.5 106.5l22 112v0zM608 665l-62 -39q-18 34 -43 66.5t-58 62.5l58 46q30 -32 56.5 -65.5t48.5 -71.5v1z" />
    <glyph glyph-name="aacute" unicode="&#xe1;" horiz-adv-x="668" 
d="M480 265h-9q-28 -62 -61 -112.5t-72 -88.5q-38 -39 -74.5 -57.5t-70.5 -18.5q-52 0 -77.5 31.5t-25.5 95.5q0 71 28 140.5t85 138.5q59 71 130 106t156 35q35 0 71.5 -1.5t74.5 -4.5l-35 -144l-47 -241q-6 -29 -9 -47.5t-3 -26.5q0 -16 7 -23.5t22 -7.5q24 0 60.5 26.5
t85.5 80.5l-9 -44q-54 -58 -102 -86t-90 -28q-36 0 -53.5 17.5t-17.5 54.5q0 12 3 32.5t9 50.5l24 122v0zM519 460q-31 13 -61.5 19.5t-60.5 6.5q-44 0 -79.5 -28t-62.5 -84q-31 -67 -46.5 -126.5t-15.5 -112.5q0 -38 11.5 -57t33.5 -19q21 0 51 22t70 66q39 44 73.5 94.5
t64.5 106.5l22 112v0zM459 626l16 44q32 26 79.5 59t110.5 71l-32 -77q-61 -32 -104.5 -56t-69.5 -42v1z" />
    <glyph glyph-name="acircumflex" unicode="&#xe2;" horiz-adv-x="668" 
d="M480 265h-9q-28 -62 -61 -112.5t-72 -88.5q-38 -39 -74.5 -57.5t-70.5 -18.5q-52 0 -77.5 31.5t-25.5 95.5q0 71 28 140.5t85 138.5q59 71 130 106t156 35q35 0 71.5 -1.5t74.5 -4.5l-35 -144l-47 -241q-6 -29 -9 -47.5t-3 -26.5q0 -16 7 -23.5t22 -7.5q24 0 60.5 26.5
t85.5 80.5l-9 -44q-54 -58 -102 -86t-90 -28q-36 0 -53.5 17.5t-17.5 54.5q0 12 3 32.5t9 50.5l24 122v0zM519 460q-31 13 -61.5 19.5t-60.5 6.5q-44 0 -79.5 -28t-62.5 -84q-31 -67 -46.5 -126.5t-15.5 -112.5q0 -38 11.5 -57t33.5 -19q21 0 51 22t70 66q39 44 73.5 94.5
t64.5 106.5l22 112v0zM650 661l-59 -35q-19 19 -34 45.5t-27 60.5q-14 -16 -34.5 -38t-46.5 -49q-1 -1 -4.5 -5t-8.5 -10l-70 -4q53 37 90.5 70.5t60.5 61.5l66 43q11 -39 28 -74t39 -67v1z" />
    <glyph glyph-name="atilde" unicode="&#xe3;" horiz-adv-x="668" 
d="M480 265h-9q-28 -62 -61 -112.5t-72 -88.5q-38 -39 -74.5 -57.5t-70.5 -18.5q-52 0 -77.5 31.5t-25.5 95.5q0 71 28 140.5t85 138.5q59 71 130 106t156 35q35 0 71.5 -1.5t74.5 -4.5l-35 -144l-47 -241q-6 -29 -9 -47.5t-3 -26.5q0 -16 7 -23.5t22 -7.5q24 0 60.5 26.5
t85.5 80.5l-9 -44q-54 -58 -102 -86t-90 -28q-36 0 -53.5 17.5t-17.5 54.5q0 12 3 32.5t9 50.5l24 122v0zM519 460q-31 13 -61.5 19.5t-60.5 6.5q-44 0 -79.5 -28t-62.5 -84q-31 -67 -46.5 -126.5t-15.5 -112.5q0 -38 11.5 -57t33.5 -19q21 0 51 22t70 66q39 44 73.5 94.5
t64.5 106.5l22 112v0zM398 633l-34 -7q4 25 13.5 45.5t24.5 36.5t33 23.5t38 7.5q11 0 27 -5.5t35 -16.5l17 -8q18 -11 31.5 -16t23.5 -5q14 0 26.5 12t23.5 36l32 11q-9 -62 -35.5 -92t-70.5 -30q-15 0 -31.5 4.5t-33.5 14.5l-23 14q-16 7 -28.5 11.5t-21.5 4.5
q-15 0 -26.5 -10.5t-20.5 -31.5v1z" />
    <glyph glyph-name="adieresis" unicode="&#xe4;" horiz-adv-x="668" 
d="M480 265h-9q-28 -62 -61 -112.5t-72 -88.5q-38 -39 -74.5 -57.5t-70.5 -18.5q-52 0 -77.5 31.5t-25.5 95.5q0 71 28 140.5t85 138.5q59 71 130 106t156 35q35 0 71.5 -1.5t74.5 -4.5l-35 -144l-47 -241q-6 -29 -9 -47.5t-3 -26.5q0 -16 7 -23.5t22 -7.5q24 0 60.5 26.5
t85.5 80.5l-9 -44q-54 -58 -102 -86t-90 -28q-36 0 -53.5 17.5t-17.5 54.5q0 12 3 32.5t9 50.5l24 122v0zM519 460q-31 13 -61.5 19.5t-60.5 6.5q-44 0 -79.5 -28t-62.5 -84q-31 -67 -46.5 -126.5t-15.5 -112.5q0 -38 11.5 -57t33.5 -19q21 0 51 22t70 66q39 44 73.5 94.5
t64.5 106.5l22 112v0zM390 626l-60 74l77 58l58 -78l-75 -54v0zM624 626l-60 76l77 56l58 -77l-75 -55v0z" />
    <glyph glyph-name="aring" unicode="&#xe5;" horiz-adv-x="668" 
d="M480 265h-9q-28 -62 -61 -112.5t-72 -88.5q-38 -39 -74.5 -57.5t-70.5 -18.5q-52 0 -77.5 31.5t-25.5 95.5q0 71 28 140.5t85 138.5q59 71 130 106t156 35q35 0 71.5 -1.5t74.5 -4.5l-35 -144l-47 -241q-6 -29 -9 -47.5t-3 -26.5q0 -16 7 -23.5t22 -7.5q24 0 60.5 26.5
t85.5 80.5l-9 -44q-54 -58 -102 -86t-90 -28q-36 0 -53.5 17.5t-17.5 54.5q0 12 3 32.5t9 50.5l24 122v0zM519 460q-31 13 -61.5 19.5t-60.5 6.5q-44 0 -79.5 -28t-62.5 -84q-31 -67 -46.5 -126.5t-15.5 -112.5q0 -38 11.5 -57t33.5 -19q21 0 51 22t70 66q39 44 73.5 94.5
t64.5 106.5l22 112v0zM536 623q-16 -1 -30 5t-25 17t-17 25t-6 30q0 17 6 31t17 25t25 17t30 6q17 0 30.5 -6t25.5 -17q11 -11 17 -25t6 -31q0 -16 -6 -30t-17 -25q-12 -11 -25.5 -17t-30.5 -6v1zM536 653q10 -1 18.5 2.5t15.5 10.5q8 8 11 16t3 18q0 11 -3 19.5t-11 15.5
q-7 7 -15.5 10.5t-18.5 3.5t-18.5 -3.5t-15.5 -11.5q-7 -7 -10.5 -15t-3.5 -19q0 -10 3.5 -18t10.5 -16q7 -7 15.5 -10.5t18.5 -3.5v1z" />
    <glyph glyph-name="ae" unicode="&#xe6;" horiz-adv-x="915" 
d="M480 265h-9q-28 -62 -61 -112.5t-72 -88.5q-38 -39 -74.5 -57.5t-70.5 -18.5q-52 0 -77.5 32t-25.5 97q0 72 28 142t85 139q59 71 129 106.5t152 35.5q15 0 48.5 -2.5t84.5 -7.5h1.5h3.5q3 -1 6.5 -1h7.5l-19 -67q50 38 95.5 58t88.5 20q22 0 40 -6.5t32 -20.5
q14 -13 20.5 -31t6.5 -40q0 -49 -23 -89t-68 -72q-46 -31 -106 -48.5t-134 -21.5v-21q0 -73 27 -109t81 -36q38 0 93.5 22.5t128.5 68.5l-7 -36q-81 -57 -149 -84.5t-124 -27.5q-33 0 -60 11.5t-49 36.5t-33 56t-11 68q0 18 3.5 44t10.5 60v1zM518 463q-31 13 -62 20t-61 7
q-44 0 -79.5 -28.5t-61.5 -84.5q-31 -66 -47 -125.5t-16 -112.5q0 -39 11.5 -58t33.5 -19q21 0 51 22t70 66q39 44 74 94.5t65 107.5l22 111v0zM569 240q55 4 98.5 18t74.5 38q32 24 47.5 55t15.5 68q0 38 -14 57t-41 19q-29 0 -57.5 -19.5t-56.5 -59.5q-27 -39 -44 -83
t-23 -94v1z" />
    <glyph glyph-name="ccedilla" unicode="&#xe7;" horiz-adv-x="546" 
d="M525 134l-7 -38q-51 -37 -105 -62.5t-112 -39.5l-25 -37q25 -8 37.5 -21.5t12.5 -34.5q0 -17 -9.5 -33t-28.5 -31t-40 -22t-44 -7q-10 0 -21.5 1.5t-25.5 3.5l37 51q12 -8 22.5 -11.5t19.5 -3.5q21 0 32 9t11 26q0 19 -17 29t-51 12l43 63q-78 7 -117 48t-39 117
q0 74 26.5 140.5t79.5 126.5t112.5 90t125.5 30q14 0 28 -1.5t29 -4.5q14 -3 28 -7.5t28 -10.5l-33 -125h-30l1 7q2 10 3.5 18.5t1.5 14.5q0 34 -23 51t-69 17q-42 0 -78.5 -24.5t-68.5 -72.5q-31 -48 -47 -104t-16 -121q0 -69 26.5 -103t79.5 -34q40 0 95.5 23.5
t127.5 69.5v1z" />
    <glyph glyph-name="egrave" unicode="&#xe8;" horiz-adv-x="541" 
d="M525 133l-7 -38q-78 -55 -144 -81t-121 -26q-34 0 -62 11t-50 36q-22 24 -32.5 55.5t-10.5 70.5q0 68 26.5 133t78.5 126q53 61 109 91t116 30q22 0 40 -7.5t31 -21.5q13 -15 19.5 -34t6.5 -42q0 -47 -24 -87.5t-71 -74.5q-48 -34 -105 -50.5t-124 -16.5v-21
q0 -73 26 -108.5t78 -35.5q45 0 100 22.5t120 67.5v1zM202 238q55 4 97.5 18t73.5 38q31 23 46.5 54.5t15.5 68.5q0 38 -14 56.5t-41 18.5q-29 0 -57 -19.5t-56 -58.5q-27 -39 -43.5 -83t-21.5 -94v1zM514 665l-62 -39q-18 34 -43 66.5t-58 62.5l58 46q30 -32 56.5 -65.5
t48.5 -71.5v1z" />
    <glyph glyph-name="eacute" unicode="&#xe9;" horiz-adv-x="541" 
d="M525 133l-7 -38q-78 -55 -144 -81t-121 -26q-34 0 -62 11t-50 36q-22 24 -32.5 55.5t-10.5 70.5q0 68 26.5 133t78.5 126q53 61 109 91t116 30q22 0 40 -7.5t31 -21.5q13 -15 19.5 -34t6.5 -42q0 -47 -24 -87.5t-71 -74.5q-48 -34 -105 -50.5t-124 -16.5v-21
q0 -73 26 -108.5t78 -35.5q45 0 100 22.5t120 67.5v1zM202 238q55 4 97.5 18t73.5 38q31 23 46.5 54.5t15.5 68.5q0 38 -14 56.5t-41 18.5q-29 0 -57 -19.5t-56 -58.5q-27 -39 -43.5 -83t-21.5 -94v1zM365 626l15 44q33 26 80.5 59t110.5 71l-32 -77q-61 -32 -104.5 -56
t-69.5 -42v1z" />
    <glyph glyph-name="ecircumflex" unicode="&#xea;" horiz-adv-x="541" 
d="M525 133l-7 -38q-78 -55 -144 -81t-121 -26q-34 0 -62 11t-50 36q-22 24 -32.5 55.5t-10.5 70.5q0 68 26.5 133t78.5 126q53 61 109 91t116 30q22 0 40 -7.5t31 -21.5q13 -15 19.5 -34t6.5 -42q0 -47 -24 -87.5t-71 -74.5q-48 -34 -105 -50.5t-124 -16.5v-21
q0 -73 26 -108.5t78 -35.5q45 0 100 22.5t120 67.5v1zM202 238q55 4 97.5 18t73.5 38q31 23 46.5 54.5t15.5 68.5q0 38 -14 56.5t-41 18.5q-29 0 -57 -19.5t-56 -58.5q-27 -39 -43.5 -83t-21.5 -94v1zM556 661l-59 -35q-19 19 -34 45.5t-27 60.5q-14 -16 -34.5 -38
t-46.5 -49q-1 -1 -4.5 -5t-9.5 -10l-69 -4q53 37 90.5 70.5t60.5 61.5l66 43q11 -39 28 -74t39 -67v1z" />
    <glyph glyph-name="edieresis" unicode="&#xeb;" horiz-adv-x="541" 
d="M525 133l-7 -38q-78 -55 -144 -81t-121 -26q-34 0 -62 11t-50 36q-22 24 -32.5 55.5t-10.5 70.5q0 68 26.5 133t78.5 126q53 61 109 91t116 30q22 0 40 -7.5t31 -21.5q13 -15 19.5 -34t6.5 -42q0 -47 -24 -87.5t-71 -74.5q-48 -34 -105 -50.5t-124 -16.5v-21
q0 -73 26 -108.5t78 -35.5q45 0 100 22.5t120 67.5v1zM202 238q55 4 97.5 18t73.5 38q31 23 46.5 54.5t15.5 68.5q0 38 -14 56.5t-41 18.5q-29 0 -57 -19.5t-56 -58.5q-27 -39 -43.5 -83t-21.5 -94v1zM307 626l-59 74l76 58l58 -78l-75 -54v0zM541 626l-60 76l77 56l58 -77
l-75 -55v0z" />
    <glyph glyph-name="igrave" unicode="&#xec;" horiz-adv-x="376" 
d="M432 147l-9 -45q-54 -58 -102 -86t-90 -28q-35 0 -52.5 17.5t-17.5 54.5q0 12 2.5 33t8.5 49l34 171q7 35 10.5 59t3.5 36q0 20 -8 30.5t-24 10.5q-11 0 -30.5 -4.5t-48.5 -12.5l6 31l239 78l-37 -156l-48 -241q-6 -29 -8.5 -47t-2.5 -26q0 -16 7 -24t22 -8q24 0 60 26.5
t85 80.5v1zM425 665l-61 -39q-18 34 -43.5 66.5t-58.5 62.5l58 46q30 -32 56.5 -65.5t48.5 -71.5v1z" />
    <glyph glyph-name="iacute" unicode="&#xed;" horiz-adv-x="376" 
d="M432 147l-9 -45q-54 -58 -102 -86t-90 -28q-35 0 -52.5 17.5t-17.5 54.5q0 12 2.5 33t8.5 49l34 171q7 35 10.5 59t3.5 36q0 20 -8 30.5t-24 10.5q-11 0 -30.5 -4.5t-48.5 -12.5l6 31l239 78l-37 -156l-48 -241q-6 -29 -8.5 -47t-2.5 -26q0 -16 7 -24t22 -8q24 0 60 26.5
t85 80.5v1zM258 626l16 44q32 26 79.5 59t110.5 71l-31 -77q-61 -32 -105 -56t-70 -42v1z" />
    <glyph glyph-name="icircumflex" unicode="&#xee;" horiz-adv-x="376" 
d="M432 147l-9 -45q-54 -58 -102 -86t-90 -28q-35 0 -52.5 17.5t-17.5 54.5q0 12 2.5 33t8.5 49l34 171q7 35 10.5 59t3.5 36q0 20 -8 30.5t-24 10.5q-11 0 -30.5 -4.5t-48.5 -12.5l6 31l239 78l-37 -156l-48 -241q-6 -29 -8.5 -47t-2.5 -26q0 -16 7 -24t22 -8q24 0 60 26.5
t85 80.5v1zM443 661l-59 -35q-19 19 -34 45.5t-27 60.5q-14 -16 -34.5 -38t-46.5 -49q-1 -1 -4.5 -5t-8.5 -10l-70 -4q53 37 90.5 70.5t60.5 61.5l66 43q11 -39 28 -74t39 -67v1z" />
    <glyph glyph-name="idieresis" unicode="&#xef;" horiz-adv-x="376" 
d="M432 147l-9 -45q-54 -58 -102 -86t-90 -28q-35 0 -52.5 17.5t-17.5 54.5q0 12 2.5 33t8.5 49l34 171q7 35 10.5 59t3.5 36q0 20 -8 30.5t-24 10.5q-11 0 -30.5 -4.5t-48.5 -12.5l6 31l239 78l-37 -156l-48 -241q-6 -29 -8.5 -47t-2.5 -26q0 -16 7 -24t22 -8q24 0 60 26.5
t85 80.5v1zM188 626l-59 74l77 58l58 -78l-76 -54v0zM422 626l-59 76l76 56l59 -77l-76 -55v0z" />
    <glyph glyph-name="eth" unicode="&#xf0;" 
 />
    <glyph glyph-name="ntilde" unicode="&#xf1;" horiz-adv-x="710" 
d="M131 -5l36 149l48 241q5 27 8 45t3 27q0 15 -7.5 23t-21.5 8q-24 0 -60.5 -27t-84.5 -80l9 46q53 56 100.5 84.5t90.5 28.5q35 0 53 -18.5t18 -54.5q0 -13 -3 -33.5t-8 -49.5l-24 -119h7q31 61 65.5 111.5t72.5 88.5t74 56.5t69 18.5q40 0 60 -22t20 -66q0 -15 -2 -32.5
t-6 -38.5l-47 -237q-6 -29 -9 -47.5t-3 -26.5q0 -16 7 -23.5t22 -7.5q24 0 60.5 26.5t85.5 80.5l-9 -44q-54 -58 -102 -86t-90 -28q-35 0 -52.5 17.5t-17.5 54.5q0 12 2.5 32.5t8.5 50.5l48 240q3 13 4.5 24.5t1.5 21.5q0 20 -7.5 30t-22.5 10q-46 0 -110.5 -74t-147.5 -222
l-36 -173l-103 -5v0zM384 633l-34 -7q4 25 13.5 45.5t24.5 36.5t32.5 23.5t37.5 7.5q12 0 28 -5.5t35 -16.5l17 -8q18 -11 31.5 -16t23.5 -5q14 0 26.5 12t23.5 36l32 11q-9 -62 -35.5 -92t-70.5 -30q-15 0 -31.5 4.5t-34.5 14.5l-22 14q-16 7 -28.5 11.5t-21.5 4.5
q-15 0 -26.5 -10.5t-20.5 -31.5v1z" />
    <glyph glyph-name="ograve" unicode="&#xf2;" horiz-adv-x="582" 
d="M247 -12q-32 0 -58.5 11.5t-48.5 36.5q-21 26 -31.5 57t-10.5 68q0 71 26.5 136t79.5 124q53 60 111 89.5t121 29.5q34 0 62 -12t50 -36q22 -25 33 -56t11 -69q0 -73 -27 -138.5t-80 -124.5t-112.5 -87.5t-125.5 -28.5v0zM303 30q36 -1 67.5 22.5t59.5 69.5
q28 47 41.5 101t13.5 115q0 80 -24.5 120.5t-74.5 40.5q-34 0 -65.5 -24t-60.5 -71q-28 -48 -41.5 -102t-13.5 -115q0 -79 24.5 -118.5t73.5 -39.5v1zM547 665l-62 -39q-18 34 -43 66.5t-58 62.5l58 46q30 -32 56.5 -65.5t48.5 -71.5v1z" />
    <glyph glyph-name="oacute" unicode="&#xf3;" horiz-adv-x="582" 
d="M247 -12q-32 0 -58.5 11.5t-48.5 36.5q-21 26 -31.5 57t-10.5 68q0 71 26.5 136t79.5 124q53 60 111 89.5t121 29.5q34 0 62 -12t50 -36q22 -25 33 -56t11 -69q0 -73 -27 -138.5t-80 -124.5t-112.5 -87.5t-125.5 -28.5v0zM303 30q36 -1 67.5 22.5t59.5 69.5
q28 47 41.5 101t13.5 115q0 80 -24.5 120.5t-74.5 40.5q-34 0 -65.5 -24t-60.5 -71q-28 -48 -41.5 -102t-13.5 -115q0 -79 24.5 -118.5t73.5 -39.5v1zM380 626l15 44q33 26 80.5 59t110.5 71l-32 -77q-61 -32 -104.5 -56t-69.5 -42v1z" />
    <glyph glyph-name="ocircumflex" unicode="&#xf4;" horiz-adv-x="582" 
d="M247 -12q-32 0 -58.5 11.5t-48.5 36.5q-21 26 -31.5 57t-10.5 68q0 71 26.5 136t79.5 124q53 60 111 89.5t121 29.5q34 0 62 -12t50 -36q22 -25 33 -56t11 -69q0 -73 -27 -138.5t-80 -124.5t-112.5 -87.5t-125.5 -28.5v0zM303 30q36 -1 67.5 22.5t59.5 69.5
q28 47 41.5 101t13.5 115q0 80 -24.5 120.5t-74.5 40.5q-34 0 -65.5 -24t-60.5 -71q-28 -48 -41.5 -102t-13.5 -115q0 -79 24.5 -118.5t73.5 -39.5v1zM583 661l-60 -35q-18 19 -33.5 45.5t-27.5 60.5q-13 -16 -33.5 -38t-46.5 -49l-5 -5t-9 -10l-69 -4q53 37 90.5 70.5
t60.5 61.5l66 43q11 -39 28 -74t39 -67v1z" />
    <glyph glyph-name="otilde" unicode="&#xf5;" horiz-adv-x="582" 
d="M247 -12q-32 0 -58.5 11.5t-48.5 36.5q-21 26 -31.5 57t-10.5 68q0 71 26.5 136t79.5 124q53 60 111 89.5t121 29.5q34 0 62 -12t50 -36q22 -25 33 -56t11 -69q0 -73 -27 -138.5t-80 -124.5t-112.5 -87.5t-125.5 -28.5v0zM303 30q36 -1 67.5 22.5t59.5 69.5
q28 47 41.5 101t13.5 115q0 80 -24.5 120.5t-74.5 40.5q-34 0 -65.5 -24t-60.5 -71q-28 -48 -41.5 -102t-13.5 -115q0 -79 24.5 -118.5t73.5 -39.5v1zM331 633l-34 -7q4 25 13.5 45.5t24.5 36.5t32.5 23.5t37.5 7.5q12 0 28 -5.5t35 -16.5l16 -8q18 -11 32 -16t24 -5
q14 0 26 12t23 36l33 11q-9 -62 -35.5 -92t-70.5 -30q-16 0 -32.5 4.5t-33.5 14.5l-22 14q-16 7 -29 11.5t-22 4.5q-14 0 -25.5 -10.5t-20.5 -31.5v1z" />
    <glyph glyph-name="odieresis" unicode="&#xf6;" horiz-adv-x="582" 
d="M247 -12q-32 0 -58.5 11.5t-48.5 36.5q-21 26 -31.5 57t-10.5 68q0 71 26.5 136t79.5 124q53 60 111 89.5t121 29.5q34 0 62 -12t50 -36q22 -25 33 -56t11 -69q0 -73 -27 -138.5t-80 -124.5t-112.5 -87.5t-125.5 -28.5v0zM303 30q36 -1 67.5 22.5t59.5 69.5
q28 47 41.5 101t13.5 115q0 80 -24.5 120.5t-74.5 40.5q-34 0 -65.5 -24t-60.5 -71q-28 -48 -41.5 -102t-13.5 -115q0 -79 24.5 -118.5t73.5 -39.5v1zM328 626l-59 74l76 58l58 -78l-75 -54v0zM562 626l-60 76l77 56l58 -77l-75 -55v0z" />
    <glyph glyph-name="divide" unicode="&#xf7;" horiz-adv-x="632" 
d="M280 45l18 90h90l-18 -90h-90v0zM103 262l11 54h530l-11 -54h-530v0zM359 442l18 91h90l-18 -91h-90v0z" />
    <glyph glyph-name="oslash" unicode="&#xf8;" horiz-adv-x="582" 
d="M120 -72h-39l72 96q-27 28 -40.5 62t-13.5 73q0 71 26.5 136t79.5 125q53 61 110.5 91t118.5 30q21 0 41.5 -5t39.5 -16l58 82h36l-70 -97q26 -34 39.5 -67.5t13.5 -68.5q0 -73 -26.5 -139.5t-79.5 -125.5q-52 -58 -112 -87t-125 -29q-16 0 -34 4.5t-38 12.5l-57 -77v0z
M481 425l-258 -356q13 -23 31.5 -33.5t43.5 -10.5q37 0 70.5 24t63.5 73t45.5 103t15.5 113q0 18 -3 39.5t-9 46.5v1zM209 102l258 355q-13 20 -31.5 31t-44.5 11q-37 0 -70.5 -24.5t-62.5 -74.5q-30 -49 -44.5 -104.5t-14.5 -117.5q0 -15 2.5 -34t7.5 -43v1z" />
    <glyph glyph-name="ugrave" unicode="&#xf9;" horiz-adv-x="697" 
d="M516 265h-8q-70 -140 -137.5 -208.5t-133.5 -68.5q-39 0 -58.5 22.5t-19.5 68.5q0 13 2 29.5t6 35.5l47 241q6 27 9 45t3 27q0 15 -7.5 23t-21.5 8q-24 0 -60.5 -27t-85.5 -80l9 46q53 56 101 84.5t91 28.5q35 0 53 -18.5t18 -54.5q0 -12 -3 -33t-9 -50l-48 -239
q-3 -17 -4.5 -28.5t-1.5 -18.5q0 -19 7 -29t22 -10q18 0 46 22t65 66t71.5 96t65.5 110l35 177l103 6l-36 -151l-48 -241q-6 -29 -8.5 -47.5t-2.5 -26.5q0 -16 7 -23.5t22 -7.5q24 0 60 26.5t85 80.5l-8 -44q-54 -58 -102 -86t-90 -28q-36 0 -53.5 17.5t-17.5 54.5
q0 12 3 33t9 50l24 122v0zM564 665l-61 -39q-18 34 -43.5 66.5t-58.5 62.5l58 46q30 -32 56.5 -65.5t48.5 -71.5v1z" />
    <glyph glyph-name="uacute" unicode="&#xfa;" horiz-adv-x="697" 
d="M516 265h-8q-70 -140 -137.5 -208.5t-133.5 -68.5q-39 0 -58.5 22.5t-19.5 68.5q0 13 2 29.5t6 35.5l47 241q6 27 9 45t3 27q0 15 -7.5 23t-21.5 8q-24 0 -60.5 -27t-85.5 -80l9 46q53 56 101 84.5t91 28.5q35 0 53 -18.5t18 -54.5q0 -12 -3 -33t-9 -50l-48 -239
q-3 -17 -4.5 -28.5t-1.5 -18.5q0 -19 7 -29t22 -10q18 0 46 22t65 66t71.5 96t65.5 110l35 177l103 6l-36 -151l-48 -241q-6 -29 -8.5 -47.5t-2.5 -26.5q0 -16 7 -23.5t22 -7.5q24 0 60 26.5t85 80.5l-8 -44q-54 -58 -102 -86t-90 -28q-36 0 -53.5 17.5t-17.5 54.5
q0 12 3 33t9 50l24 122v0zM416 626l15 44q33 26 80.5 59t110.5 71l-32 -77q-61 -32 -104.5 -56t-69.5 -42v1z" />
    <glyph glyph-name="ucircumflex" unicode="&#xfb;" horiz-adv-x="697" 
d="M516 265h-8q-70 -140 -137.5 -208.5t-133.5 -68.5q-39 0 -58.5 22.5t-19.5 68.5q0 13 2 29.5t6 35.5l47 241q6 27 9 45t3 27q0 15 -7.5 23t-21.5 8q-24 0 -60.5 -27t-85.5 -80l9 46q53 56 101 84.5t91 28.5q35 0 53 -18.5t18 -54.5q0 -12 -3 -33t-9 -50l-48 -239
q-3 -17 -4.5 -28.5t-1.5 -18.5q0 -19 7 -29t22 -10q18 0 46 22t65 66t71.5 96t65.5 110l35 177l103 6l-36 -151l-48 -241q-6 -29 -8.5 -47.5t-2.5 -26.5q0 -16 7 -23.5t22 -7.5q24 0 60 26.5t85 80.5l-8 -44q-54 -58 -102 -86t-90 -28q-36 0 -53.5 17.5t-17.5 54.5
q0 12 3 33t9 50l24 122v0zM607 661l-60 -35q-18 19 -33.5 45.5t-27.5 60.5q-13 -16 -33.5 -38t-46.5 -49l-5 -5t-9 -10l-69 -4q53 37 90.5 70.5t60.5 61.5l66 43q11 -39 28 -74t39 -67v1z" />
    <glyph glyph-name="udieresis" unicode="&#xfc;" horiz-adv-x="697" 
d="M516 265h-8q-70 -140 -137.5 -208.5t-133.5 -68.5q-39 0 -58.5 22.5t-19.5 68.5q0 13 2 29.5t6 35.5l47 241q6 27 9 45t3 27q0 15 -7.5 23t-21.5 8q-24 0 -60.5 -27t-85.5 -80l9 46q53 56 101 84.5t91 28.5q35 0 53 -18.5t18 -54.5q0 -12 -3 -33t-9 -50l-48 -239
q-3 -17 -4.5 -28.5t-1.5 -18.5q0 -19 7 -29t22 -10q18 0 46 22t65 66t71.5 96t65.5 110l35 177l103 6l-36 -151l-48 -241q-6 -29 -8.5 -47.5t-2.5 -26.5q0 -16 7 -23.5t22 -7.5q24 0 60 26.5t85 80.5l-8 -44q-54 -58 -102 -86t-90 -28q-36 0 -53.5 17.5t-17.5 54.5
q0 12 3 33t9 50l24 122v0zM358 626l-60 74l77 58l58 -78l-75 -54v0zM592 626l-60 76l77 56l58 -77l-75 -55v0z" />
    <glyph glyph-name="yacute" unicode="&#xfd;" horiz-adv-x="693" 
d="M120 -311l67 69q24 -14 50 -21t54 -7q34 0 60 12t45 36t36 68t33 108l76 311h-7q-28 -59 -57.5 -106.5t-58.5 -85.5q-29 -37 -52.5 -55t-40.5 -18q-18 0 -31.5 9t-22.5 28t-16.5 54.5t-14.5 87.5l-23 191q-7 52 -18 78.5t-27 26.5q-15 0 -39.5 -21.5t-58.5 -64.5l10 51
q38 49 74.5 74.5t70.5 25.5q20 0 34 -8.5t22 -26.5q8 -17 16 -54t15 -94l20 -162q6 -44 15.5 -66t22.5 -22q15 0 36 21t49 63q5 8 32.5 53.5t76.5 128.5l37 157l104 6l-43 -153l-86 -347q-22 -87 -56.5 -154.5t-81.5 -113.5q-48 -47 -106 -70t-127 -23q-26 0 -48.5 3.5
t-40.5 10.5v0zM417 626l16 44q33 26 80.5 59t110.5 71l-32 -77q-61 -32 -105 -56t-70 -42v1z" />
    <glyph glyph-name="thorn" unicode="&#xfe;" 
 />
    <glyph glyph-name="ydieresis" unicode="&#xff;" horiz-adv-x="693" 
d="M120 -311l67 69q24 -14 50 -21t54 -7q34 0 60 12t45 36t36 68t33 108l76 311h-7q-28 -59 -57.5 -106.5t-58.5 -85.5q-29 -37 -52.5 -55t-40.5 -18q-18 0 -31.5 9t-22.5 28t-16.5 54.5t-14.5 87.5l-23 191q-7 52 -18 78.5t-27 26.5q-15 0 -39.5 -21.5t-58.5 -64.5l10 51
q38 49 74.5 74.5t70.5 25.5q20 0 34 -8.5t22 -26.5q8 -17 16 -54t15 -94l20 -162q6 -44 15.5 -66t22.5 -22q15 0 36 21t49 63q5 8 32.5 53.5t76.5 128.5l37 157l104 6l-43 -153l-86 -347q-22 -87 -56.5 -154.5t-81.5 -113.5q-48 -47 -106 -70t-127 -23q-26 0 -48.5 3.5
t-40.5 10.5v0zM366 626l-59 74l76 58l58 -78l-75 -54v0zM600 626l-59 76l76 56l58 -77l-75 -55v0z" />
    <glyph glyph-name="Abreve" unicode="&#x102;" 
 />
    <glyph glyph-name="abreve" unicode="&#x103;" 
 />
    <glyph glyph-name="Aogonek" unicode="&#x104;" 
 />
    <glyph glyph-name="aogonek" unicode="&#x105;" 
 />
    <glyph glyph-name="Cacute" unicode="&#x106;" 
 />
    <glyph glyph-name="cacute" unicode="&#x107;" 
 />
    <glyph glyph-name="Ccaron" unicode="&#x10c;" 
 />
    <glyph glyph-name="ccaron" unicode="&#x10d;" 
 />
    <glyph glyph-name="Dcaron" unicode="&#x10e;" 
 />
    <glyph glyph-name="dcaron" unicode="&#x10f;" 
 />
    <glyph glyph-name="Dslash" unicode="&#x110;" 
 />
    <glyph glyph-name="dslash" unicode="&#x111;" 
 />
    <glyph glyph-name="Eogonek" unicode="&#x118;" 
 />
    <glyph glyph-name="eogonek" unicode="&#x119;" 
 />
    <glyph glyph-name="Ecaron" unicode="&#x11a;" 
 />
    <glyph glyph-name="ecaron" unicode="&#x11b;" 
 />
    <glyph glyph-name="Gbreve" unicode="&#x11e;" 
 />
    <glyph glyph-name="gbreve" unicode="&#x11f;" 
 />
    <glyph glyph-name="Idot" unicode="&#x130;" 
 />
    <glyph glyph-name="dotlessi" unicode="&#x131;" horiz-adv-x="376" 
d="M432 147l-9 -45q-54 -58 -102 -86t-90 -28q-35 0 -52.5 17.5t-17.5 54.5q0 12 2.5 33t8.5 49l34 171q7 35 10.5 59t3.5 36q0 20 -8 30.5t-24 10.5q-11 0 -30.5 -4.5t-48.5 -12.5l6 31l239 78l-37 -156l-48 -241q-6 -29 -8.5 -47t-2.5 -26q0 -16 7 -24t22 -8q24 0 60 26.5
t85 80.5v1z" />
    <glyph glyph-name="Lacute" unicode="&#x139;" 
 />
    <glyph glyph-name="lacute" unicode="&#x13a;" 
 />
    <glyph glyph-name="Lcaron" unicode="&#x13d;" 
 />
    <glyph glyph-name="lcaron" unicode="&#x13e;" 
 />
    <glyph glyph-name="Ldot" unicode="&#x13f;" 
 />
    <glyph glyph-name="ldot" unicode="&#x140;" 
 />
    <glyph glyph-name="Lslash" unicode="&#x141;" 
 />
    <glyph glyph-name="lslash" unicode="&#x142;" 
 />
    <glyph glyph-name="Nacute" unicode="&#x143;" 
 />
    <glyph glyph-name="nacute" unicode="&#x144;" 
 />
    <glyph glyph-name="Ncaron" unicode="&#x147;" 
 />
    <glyph glyph-name="ncaron" unicode="&#x148;" 
 />
    <glyph glyph-name="Odblacute" unicode="&#x150;" 
 />
    <glyph glyph-name="odblacute" unicode="&#x151;" 
 />
    <glyph glyph-name="OE" unicode="&#x152;" horiz-adv-x="1001" 
d="M553 0l10 47q-41 -34 -89 -49.5t-102 -15.5q-61 0 -108 17.5t-82 54.5q-34 37 -51.5 87t-17.5 114q0 95 32.5 180t96.5 158q65 73 140 109.5t159 36.5q45 0 82 -14t66 -43l8 40h383l-43 -138h-31q2 9 3 17.5t1 15.5q0 20 -11 33t-33 20q-22 8 -62.5 11.5t-98.5 3.5l-15 1
l-57 -289h218l-50 -50q-55 6 -93 9.5t-58 3.5l-24 1l-40 -214q-4 -18 -5.5 -28.5t-1.5 -14.5q0 -25 38.5 -38t115.5 -13q41 0 78.5 13.5t73.5 40.5l-8 -38q-42 -43 -82.5 -63.5t-79.5 -20.5h-6.5h-7.5q-3 1 -6.5 1h-7.5l-234 14v0zM602 244l49 246q5 20 7 40t2 39
q0 31 -9.5 56.5t-29.5 44.5q-19 20 -44 29.5t-56 9.5q-56 0 -107 -34.5t-98 -103.5q-46 -69 -69.5 -145t-23.5 -159q0 -61 11.5 -108t34.5 -81t55 -51t72 -17q79 0 130.5 58t75.5 175v1z" />
    <glyph glyph-name="oe" unicode="&#x153;" horiz-adv-x="915" 
d="M479 98q-58 -56 -115.5 -83t-113.5 -27q-32 0 -59.5 11.5t-49.5 36.5q-22 24 -32.5 55t-10.5 68q0 72 26.5 137.5t80.5 124.5q53 60 112 89.5t123 29.5q49 0 84.5 -28.5t57.5 -85.5q56 57 111 85.5t108 28.5q22 0 40 -6.5t31 -20.5q14 -14 21 -32t7 -41q0 -49 -23 -88.5
t-68 -71.5q-46 -32 -106 -49.5t-134 -21.5v-21q0 -73 26.5 -109t80.5 -36q39 0 94.5 22.5t128.5 68.5l-7 -36q-79 -56 -146.5 -83t-123.5 -27q-55 0 -90.5 27t-52.5 82v1zM292 23q38 -1 73 23.5t66 73.5q31 48 46.5 102.5t15.5 114.5q0 37 -6.5 66.5t-19.5 51.5t-31 33
t-41 11q-37 0 -71.5 -24.5t-64.5 -73.5q-31 -48 -46 -102.5t-15 -115.5q0 -81 23.5 -121t70.5 -40v1zM572 240q54 4 97.5 18t74.5 38q32 24 47.5 55t15.5 68q0 38 -14 57t-41 19q-29 0 -57.5 -19.5t-56.5 -59.5t-44.5 -84t-21.5 -93v1z" />
    <glyph glyph-name="Racute" unicode="&#x154;" 
 />
    <glyph glyph-name="racute" unicode="&#x155;" 
 />
    <glyph glyph-name="Rcaron" unicode="&#x158;" 
 />
    <glyph glyph-name="rcaron" unicode="&#x159;" 
 />
    <glyph glyph-name="Sacute" unicode="&#x15a;" 
 />
    <glyph glyph-name="sacute" unicode="&#x15b;" 
 />
    <glyph glyph-name="Scedilla" unicode="&#x15e;" 
 />
    <glyph glyph-name="scedilla" unicode="&#x15f;" 
 />
    <glyph glyph-name="Scaron" unicode="&#x160;" 
 />
    <glyph glyph-name="scaron" unicode="&#x161;" 
 />
    <glyph glyph-name="Tcedilla" unicode="&#x162;" 
 />
    <glyph glyph-name="tcedilla" unicode="&#x163;" 
 />
    <glyph glyph-name="Tcaron" unicode="&#x164;" 
 />
    <glyph glyph-name="tcaron" unicode="&#x165;" 
 />
    <glyph glyph-name="Uring" unicode="&#x16e;" 
 />
    <glyph glyph-name="uring" unicode="&#x16f;" 
 />
    <glyph glyph-name="udblacute" unicode="&#x170;" 
 />
    <glyph glyph-name="Udblacute" unicode="&#x171;" 
 />
    <glyph glyph-name="Ydieresis" unicode="&#x178;" horiz-adv-x="818" 
d="M196 -160l67 64q29 -35 63.5 -52t74.5 -17q62 0 107.5 59.5t75.5 177.5l41 166q-65 -107 -118.5 -159.5t-95.5 -52.5q-33 0 -52.5 35.5t-25.5 107.5l-28 365q-6 72 -22 108.5t-42 36.5q-19 0 -44.5 -14.5t-57.5 -43.5l7 41q40 38 74 57.5t62 19.5q29 0 51.5 -14.5
t37.5 -44.5q15 -29 25.5 -78.5t15.5 -118.5l20 -267q3 -49 13 -73t26 -24q12 0 31 14t44 42q26 29 50.5 62.5t48.5 72.5l103 412l113 9l-45 -153l-95 -384q-49 -199 -141 -298.5t-226 -99.5q-42 0 -81 11t-77 33v0zM484 783l-59 74l76 58l59 -79l-76 -53v0zM718 783l-59 75
l76 57l58 -78l-75 -54v0z" />
    <glyph glyph-name="Zacute" unicode="&#x179;" 
 />
    <glyph glyph-name="zacute" unicode="&#x17a;" 
 />
    <glyph glyph-name="Zdot" unicode="&#x17b;" 
 />
    <glyph glyph-name="zdot" unicode="&#x17c;" 
 />
    <glyph glyph-name="Zcaron" unicode="&#x17d;" 
 />
    <glyph glyph-name="zcaron" unicode="&#x17e;" 
 />
    <glyph glyph-name="florin" unicode="&#x192;" horiz-adv-x="459" 
d="M107 -156l35 144l51 259h-120l6 30h120l3 12q11 53 39 98t73 81t95.5 54t106.5 18q19 0 35.5 -2.5t31.5 -7.5l-65 -71q-18 16 -38.5 25t-43.5 9q-49 0 -80.5 -36.5t-45.5 -110.5l-15 -69h127l-6 -30h-126l-78 -391l-105 -12v0z" />
    <glyph glyph-name="hungarumlaut" unicode="&#x2ba;" 
 />
    <glyph glyph-name="tilde" unicode="&#x2c6;" horiz-adv-x="584" 
d="M590 661l-60 -35q-18 19 -33.5 45.5t-27.5 60.5q-13 -16 -33.5 -38t-46.5 -49l-5 -5t-9 -10l-69 -4q53 37 90.5 70.5t60.5 61.5l66 43q11 -39 28 -74t39 -67v1z" />
    <glyph glyph-name="caron" unicode="&#x2c7;" horiz-adv-x="584" 
d="M306 766l59 35q18 -22 33.5 -48.5t28.5 -59.5q14 17 33.5 38.5t46.5 48.5l4.5 4.5t9.5 10.5l69 6q-52 -40 -90 -73t-61 -61l-66 -41q-11 37 -27.5 72t-39.5 67v1z" />
    <glyph glyph-name="macron" unicode="&#x2c9;" 
 />
    <glyph glyph-name="breve" unicode="&#x2d8;" 
 />
    <glyph glyph-name="dotaccent" unicode="&#x2d9;" 
 />
    <glyph glyph-name="ring" unicode="&#x2da;" horiz-adv-x="560" 
d="M434 626q-16 -1 -30 5t-25 17t-17 25t-6 30q0 17 6 30.5t17 25.5q11 11 25 17t30 6q17 0 30.5 -6t25.5 -17q11 -12 17 -25.5t6 -30.5q0 -16 -6 -30t-17 -25q-12 -11 -25.5 -17t-30.5 -6v1zM434 656q10 -1 18.5 2.5t15.5 10.5q8 7 11 15.5t3 18.5q0 11 -3 19.5t-11 15.5
q-7 7 -15.5 10t-18.5 3t-18.5 -3t-15.5 -11q-7 -7 -10.5 -15.5t-3.5 -18.5t3.5 -18.5t10.5 -15.5t15.5 -10.5t18.5 -3.5v1z" />
    <glyph glyph-name="ogonek" unicode="&#x2db;" 
 />
    <glyph glyph-name="circumflex" unicode="&#x2dc;" horiz-adv-x="584" 
d="M323 633l-34 -7q4 25 13.5 45.5t24.5 36.5t32.5 23.5t37.5 7.5q12 0 28 -5.5t35 -16.5l17 -8q18 -11 31.5 -16t23.5 -5q14 0 26.5 12t23.5 36l32 11q-9 -62 -35.5 -92t-70.5 -30q-15 0 -31.5 4.5t-34.5 14.5l-22 14q-16 7 -28.5 11.5t-21.5 4.5q-15 0 -26.5 -10.5
t-20.5 -31.5v1z" />
    <glyph glyph-name="Gamma" unicode="&#x393;" 
 />
    <glyph glyph-name="Theta" unicode="&#x398;" 
 />
    <glyph glyph-name="summation" unicode="&#x3a3;" 
 />
    <glyph glyph-name="Phi" unicode="&#x3a6;" 
 />
    <glyph glyph-name="Omega" unicode="&#x3a9;" 
 />
    <glyph glyph-name="alpha" unicode="&#x3b1;" 
 />
    <glyph glyph-name="delta" unicode="&#x3b4;" 
 />
    <glyph glyph-name="epsilon" unicode="&#x3b5;" 
 />
    <glyph glyph-name="pi" unicode="&#x3c0;" 
 />
    <glyph glyph-name="sigma" unicode="&#x3c3;" 
 />
    <glyph glyph-name="tau" unicode="&#x3c4;" 
 />
    <glyph glyph-name="phi" unicode="&#x3c6;" 
 />
    <glyph glyph-name="glyph276" unicode="&#x2013;" 
d="M104 265l12 60h397l-12 -60h-397v0z" />
    <glyph glyph-name="emdash" unicode="&#x2014;" horiz-adv-x="1000" 
d="M101 265l9 48h904l-10 -48h-903v0z" />
    <glyph glyph-name="underscoredbl" unicode="&#x2017;" 
 />
    <glyph glyph-name="quoteleft" unicode="&#x2018;" horiz-adv-x="252" 
d="M327 650l-77 -60l-60 79q8 92 52 138.5t125 46.5l-20 -29q-36 -8 -56 -33t-24 -69l60 -73v0z" />
    <glyph glyph-name="quoteright" unicode="&#x2019;" horiz-adv-x="252" 
d="M207 796l77 59l59 -77q-7 -95 -51.5 -142t-125.5 -47l21 31q35 6 55.5 31.5t24.5 70.5l-60 74v0z" />
    <glyph glyph-name="quotesinglbase" unicode="&#x201a;" horiz-adv-x="283" 
d="M70 86l97 70l72 -95q-3 -50 -18 -87.5t-44 -64.5q-28 -26 -66 -39.5t-87 -13.5l27 30q38 4 61 29.5t31 72.5l-73 98v0z" />
    <glyph glyph-name="quotedblleft" unicode="&#x201c;" horiz-adv-x="463" 
d="M327 650l-77 -60l-60 79q8 92 52 138.5t126 46.5l-21 -29q-36 -8 -56 -33t-24 -69l60 -73v0zM538 650l-78 -60l-59 79q8 92 52 138.5t125 46.5l-20 -29q-36 -8 -56 -33t-25 -69l61 -73v0z" />
    <glyph glyph-name="quotedblright" unicode="&#x201d;" horiz-adv-x="463" 
d="M208 796l77 59l59 -77q-7 -95 -52 -142t-126 -47l21 31q35 6 55.5 31.5t25.5 70.5l-60 74v0zM418 796l78 59l58 -77q-7 -95 -51 -142t-126 -47l21 31q35 6 55.5 31.5t25.5 70.5l-61 74v0z" />
    <glyph glyph-name="quotedblbase" unicode="&#x201e;" horiz-adv-x="463" 
d="M61 62l77 58l59 -77q-7 -93 -51.5 -140t-125.5 -47l21 30q35 7 55.5 33t24.5 70l-60 73v0zM271 62l78 58l59 -77q-7 -93 -51.5 -140t-125.5 -47l20 30q35 7 55.5 33t25.5 70l-61 73v0z" />
    <glyph glyph-name="dagger" unicode="&#x2020;" horiz-adv-x="632" 
d="M235 -156l149 577l-216 -20l33 73l189 -22l21 270l101 18l-91 -288l217 22l-32 -73l-191 20l-79 -565l-101 -12v0z" />
    <glyph glyph-name="daggerdbl" unicode="&#x2021;" horiz-adv-x="632" 
d="M236 -156l90 281l-217 -21l34 72l189 -21l52 262l-217 -20l34 72l189 -22l22 275l101 18l-93 -293l217 22l-34 -72l-189 20l-52 -262l217 21l-35 -72l-189 21l-18 -269l-101 -12v0z" />
    <glyph glyph-name="glyph287" unicode="&#x2022;" horiz-adv-x="608" 
d="M358 213q-15 -1 -27.5 4.5t-23.5 15.5q-10 11 -15.5 23.5t-5.5 28.5q0 14 5.5 27t15.5 24q11 11 23.5 16t27.5 5t28 -5t23 -16q11 -11 16 -24t5 -27q0 -16 -5 -28.5t-16 -23.5q-10 -10 -23 -15.5t-28 -5.5v1z" />
    <glyph glyph-name="ellipsis" unicode="&#x2026;" horiz-adv-x="1000" 
d="M120 0l19 96h97l-20 -96h-96v0zM452 0l19 96h96l-19 -96h-96v0zM783 0l19 96h96l-19 -96h-96v0z" />
    <glyph glyph-name="perthousand" unicode="&#x2030;" horiz-adv-x="1065" 
d="M88 -18l665 758h64l-665 -758h-64v0zM576 0q-28 0 -50 8t-39 26q-16 17 -24.5 40.5t-8.5 52.5q0 48 13.5 89t41.5 75q28 35 61 52t72 17q29 0 52 -9t39 -26q17 -17 25.5 -40.5t8.5 -53.5q0 -49 -13.5 -90t-42.5 -75q-28 -34 -61.5 -50t-73.5 -16v0zM525 123
q0 -48 14.5 -71.5t44.5 -23.5q23 0 43 16.5t38 47.5q18 32 27 67.5t9 75.5q0 48 -15 72t-44 24q-22 0 -42.5 -16t-38.5 -48t-27 -68t-9 -77v1zM933 0q-28 0 -50 8t-39 26q-17 17 -25.5 40.5t-8.5 52.5q0 48 13.5 89t41.5 75q28 35 61 52t73 17q29 0 51.5 -9t39.5 -26
t25.5 -40.5t8.5 -53.5q0 -49 -14 -90t-42 -75t-61.5 -50t-73.5 -16v0zM882 124q0 -49 14.5 -72.5t44.5 -23.5q23 0 42.5 16.5t37.5 47.5q19 32 28 67.5t9 74.5q0 48 -15 72.5t-44 24.5q-23 0 -43.5 -16t-38.5 -48q-17 -32 -26 -68t-9 -76v1zM261 361q-28 -1 -50 8t-39 26
q-16 17 -24.5 41t-8.5 52q0 49 13.5 90t41.5 75t61 51t72 17q29 0 52 -8.5t39 -26.5q17 -17 25.5 -40.5t8.5 -52.5q0 -49 -13.5 -90t-42.5 -76q-28 -34 -61.5 -50.5t-73.5 -16.5v1zM210 485q0 -48 15 -71.5t45 -23.5q22 0 42 16t38 48t27 67t9 75q0 48 -15 72t-44 24
q-22 0 -42.5 -16t-38.5 -48q-18 -31 -27 -67t-9 -77v1z" />
    <glyph glyph-name="guilsinglleft" unicode="&#x2039;" horiz-adv-x="379" 
d="M254 48q-24 55 -59 109.5t-82 106.5q65 39 110.5 83.5t72.5 94.5l101 39q-17 -42 -63 -88t-121 -96q36 -44 67.5 -95t57.5 -110l-84 -44v0z" />
    <glyph glyph-name="guilsinglright" unicode="&#x203a;" horiz-adv-x="379" 
d="M229 481q24 -57 59.5 -111t81.5 -106q-64 -40 -110 -84.5t-73 -94.5l-101 -37q17 40 63 85.5t121 96.5q-36 44 -67.5 95t-57.5 110l84 46v0z" />
    <glyph glyph-name="exclamdbl" unicode="&#x203c;" 
 />
    <glyph glyph-name="nsuperior" unicode="&#x207f;" 
 />
    <glyph glyph-name="franc" unicode="&#x20a3;" 
 />
    <glyph glyph-name="peseta" unicode="&#x20a7;" 
 />
    <glyph glyph-name="trademark" unicode="&#x2122;" horiz-adv-x="903" 
d="M298 692h-90l-13 -66h-43l19 96h338l-19 -96h-42l12 66h-90l-61 -307h66l-5 -30h-205l6 30h66l61 307v0zM685 385l-46 263l-58 -293h-115l6 30h66l61 307h-66l6 30h163l38 -216l117 216h147l-5 -30h-67l-61 -307h66l-6 -30h-133l63 313l-155 -283h-21v0z" />
    <glyph glyph-name="arrowleft" unicode="&#x2190;" 
 />
    <glyph glyph-name="arrowup" unicode="&#x2191;" 
 />
    <glyph glyph-name="arrowright" unicode="&#x2192;" 
 />
    <glyph glyph-name="arrowdown" unicode="&#x2193;" 
 />
    <glyph glyph-name="arrowboth" unicode="&#x2194;" 
 />
    <glyph glyph-name="arrowupdn" unicode="&#x2195;" 
 />
    <glyph glyph-name="arrowupdnbase" unicode="&#x21a8;" 
 />
    <glyph glyph-name="partialdiff" unicode="&#x2202;" 
 />
    <glyph glyph-name="Delta" unicode="&#x2206;" 
 />
    <glyph glyph-name="product" unicode="&#x220f;" 
 />
    <glyph glyph-name="minus" unicode="&#x2212;" 
 />
    <glyph glyph-name="fraction" unicode="&#x2215;" 
 />
    <glyph glyph-name="periodcentered" unicode="&#x2219;" 
 />
    <glyph glyph-name="radical" unicode="&#x221a;" 
 />
    <glyph glyph-name="infinity" unicode="&#x221e;" 
 />
    <glyph glyph-name="orthogonal" unicode="&#x221f;" 
 />
    <glyph glyph-name="intersection" unicode="&#x2229;" 
 />
    <glyph glyph-name="integral" unicode="&#x222b;" 
 />
    <glyph glyph-name="approxequal" unicode="&#x2248;" 
 />
    <glyph glyph-name="notequal" unicode="&#x2260;" 
 />
    <glyph glyph-name="equivalence" unicode="&#x2261;" 
 />
    <glyph glyph-name="lessequal" unicode="&#x2264;" 
 />
    <glyph glyph-name="greaterequal" unicode="&#x2265;" 
 />
    <glyph glyph-name="house" unicode="&#x2302;" 
 />
    <glyph glyph-name="revlogicalnot" unicode="&#x2310;" 
 />
    <glyph glyph-name="integraltp" unicode="&#x2320;" 
 />
    <glyph glyph-name="integralbt" unicode="&#x2321;" 
 />
    <glyph glyph-name="2500" unicode="&#x2500;" 
 />
    <glyph glyph-name="2502" unicode="&#x2502;" 
 />
    <glyph glyph-name="250c" unicode="&#x250c;" 
 />
    <glyph glyph-name="2510" unicode="&#x2510;" 
 />
    <glyph glyph-name="2514" unicode="&#x2514;" 
 />
    <glyph glyph-name="2518" unicode="&#x2518;" 
 />
    <glyph glyph-name="251c" unicode="&#x251c;" 
 />
    <glyph glyph-name="2524" unicode="&#x2524;" 
 />
    <glyph glyph-name="252c" unicode="&#x252c;" 
 />
    <glyph glyph-name="2534" unicode="&#x2534;" 
 />
    <glyph glyph-name="253c" unicode="&#x253c;" 
 />
    <glyph glyph-name="2550" unicode="&#x2550;" 
 />
    <glyph glyph-name="2551" unicode="&#x2551;" 
 />
    <glyph glyph-name="2552" unicode="&#x2552;" 
 />
    <glyph glyph-name="2553" unicode="&#x2553;" 
 />
    <glyph glyph-name="2554" unicode="&#x2554;" 
 />
    <glyph glyph-name="2555" unicode="&#x2555;" 
 />
    <glyph glyph-name="2556" unicode="&#x2556;" 
 />
    <glyph glyph-name="2557" unicode="&#x2557;" 
 />
    <glyph glyph-name="2558" unicode="&#x2558;" 
 />
    <glyph glyph-name="2559" unicode="&#x2559;" 
 />
    <glyph glyph-name="255a" unicode="&#x255a;" 
 />
    <glyph glyph-name="255b" unicode="&#x255b;" 
 />
    <glyph glyph-name="255c" unicode="&#x255c;" 
 />
    <glyph glyph-name="255d" unicode="&#x255d;" 
 />
    <glyph glyph-name="255e" unicode="&#x255e;" 
 />
    <glyph glyph-name="255f" unicode="&#x255f;" 
 />
    <glyph glyph-name="2560" unicode="&#x2560;" 
 />
    <glyph glyph-name="2561" unicode="&#x2561;" 
 />
    <glyph glyph-name="2562" unicode="&#x2562;" 
 />
    <glyph glyph-name="2563" unicode="&#x2563;" 
 />
    <glyph glyph-name="2564" unicode="&#x2564;" 
 />
    <glyph glyph-name="2565" unicode="&#x2565;" 
 />
    <glyph glyph-name="2566" unicode="&#x2566;" 
 />
    <glyph glyph-name="2567" unicode="&#x2567;" 
 />
    <glyph glyph-name="2568" unicode="&#x2568;" 
 />
    <glyph glyph-name="2569" unicode="&#x2569;" 
 />
    <glyph glyph-name="256a" unicode="&#x256a;" 
 />
    <glyph glyph-name="256b" unicode="&#x256b;" 
 />
    <glyph glyph-name="256c" unicode="&#x256c;" 
 />
    <glyph glyph-name="upblock" unicode="&#x2580;" 
 />
    <glyph glyph-name="dnblock" unicode="&#x2584;" 
 />
    <glyph glyph-name="block" unicode="&#x2588;" 
 />
    <glyph glyph-name="lfblock" unicode="&#x258c;" 
 />
    <glyph glyph-name="rtblock" unicode="&#x2590;" 
 />
    <glyph glyph-name="ltshade" unicode="&#x2591;" 
 />
    <glyph glyph-name="shade" unicode="&#x2592;" 
 />
    <glyph glyph-name="dkshade" unicode="&#x2593;" 
 />
    <glyph glyph-name="filledbox" unicode="&#x25a0;" 
 />
    <glyph glyph-name="filledrect" unicode="&#x25ac;" 
 />
    <glyph glyph-name="triagup" unicode="&#x25b2;" 
 />
    <glyph glyph-name="triagrt" unicode="&#x25ba;" 
 />
    <glyph glyph-name="triagdn" unicode="&#x25bc;" 
 />
    <glyph glyph-name="triaglf" unicode="&#x25c4;" 
 />
    <glyph glyph-name="lozenge" unicode="&#x25ca;" horiz-adv-x="632" 
d="M280 45l18 90h90l-18 -90h-90v0zM103 262l11 54h530l-11 -54h-530v0zM359 442l18 91h90l-18 -91h-90v0z" />
    <glyph glyph-name="circle" unicode="&#x25cb;" 
 />
    <glyph glyph-name="invbullet" unicode="&#x25d8;" 
 />
    <glyph glyph-name="invcircle" unicode="&#x25d9;" 
 />
    <glyph glyph-name="smileface" unicode="&#x263a;" 
 />
    <glyph glyph-name="invsmileface" unicode="&#x263b;" 
 />
    <glyph glyph-name="sun" unicode="&#x263c;" 
 />
    <glyph glyph-name="female" unicode="&#x2640;" 
 />
    <glyph glyph-name="male" unicode="&#x2642;" 
 />
    <glyph glyph-name="spade" unicode="&#x2660;" 
 />
    <glyph glyph-name="club" unicode="&#x2663;" 
 />
    <glyph glyph-name="heart" unicode="&#x2665;" 
 />
    <glyph glyph-name="diamond" unicode="&#x2666;" 
 />
    <glyph glyph-name="musicalnote" unicode="&#x266a;" 
 />
    <glyph glyph-name="musicalnotedbl" unicode="&#x266b;" 
 />
    <glyph glyph-name="apple" unicode="&#xf000;" 
 />
    <glyph glyph-name="fi" unicode="&#xf001;" 
 />
    <glyph glyph-name="fl" unicode="&#xf002;" 
 />
    <glyph glyph-name="degree" horiz-adv-x="276" 
d="M268 572q-18 -1 -33 5t-27 18q-13 13 -19 28t-6 32q0 18 6 33t19 27q12 12 27 18t33 6q17 0 32 -6t27 -18t18.5 -27t6.5 -33q0 -17 -6.5 -32t-18.5 -28q-12 -12 -27 -18t-32 -6v1zM268 602q11 -1 20 3t17 12t12 18t4 20q0 11 -4 20.5t-12 17.5t-17 12t-20 4t-21 -4
t-18 -12q-7 -8 -11.5 -17.5t-4.5 -20.5q0 -10 4.5 -20t11.5 -18q8 -8 18 -12t21 -4v1z" />
    <glyph glyph-name="bullet" horiz-adv-x="608" 
d="M358 213q-15 -1 -27.5 4.5t-23.5 15.5q-10 11 -15.5 23.5t-5.5 28.5q0 14 5.5 27t15.5 24q11 11 23.5 16t27.5 5t28 -5t23 -16q11 -11 16 -24t5 -27q0 -16 -5 -28.5t-16 -23.5q-10 -10 -23 -15.5t-28 -5.5v1z" />
    <glyph glyph-name="endash" 
 />
  </font>
</defs>
</svg>
